<svg width="275" height="144" viewBox="0 0 275 144" fill="none" xmlns="http://www.w3.org/2000/svg">
<path d="M73.3767 83.4914V143L174.258 82.9629L206.214 63.9452V1L107.172 62.5046L73.3767 83.4914Z" fill="black"/>
<path d="M274 1H206.214V63.9452H274V1Z" fill="black"/>
<path d="M274 63.9452H206.214L174.258 82.9629L248.85 81.9894L274 63.9452Z" fill="black"/>
<path d="M1 83.4914H73.3767L107.172 62.5046H37.2372L1 83.4914Z" fill="black"/>
<path d="M1 83.4914V143H73.3767V83.4914H1Z" fill="black"/>
<path d="M1 83.4914V143H73.3767M1 83.4914H73.3767M1 83.4914L37.2372 62.5046H107.172M73.3767 143V83.4914M73.3767 143L206.214 63.9452M73.3767 143L174.258 82.9629M73.3767 83.4914L206.214 1M73.3767 83.4914L107.172 62.5046M107.172 62.5046L206.214 1M206.214 1H274V63.9452M206.214 1V63.9452M274 63.9452H206.214M274 63.9452L248.85 81.9894L174.258 82.9629M206.214 63.9452L174.258 82.9629" stroke="white"/>
</svg>
