<svg width="875" height="108" viewBox="0 0 875 108" fill="none" xmlns="http://www.w3.org/2000/svg">
<path d="M19.32 60.16V74.788H65.228V85H7.084V25.476H65.136V35.688H19.32V50.5H56.856V60.16H19.32ZM76.227 39.276H88.187V85H76.227V39.276ZM109.439 38.264C112.26 38.264 114.867 38.632 117.259 39.368C119.651 40.104 121.736 41.2387 123.515 42.772C125.294 44.3053 126.674 46.268 127.655 48.66C128.636 50.9907 129.127 53.7813 129.127 57.032V85H117.167V59.148C117.167 55.284 116.216 52.4627 114.315 50.684C112.475 48.844 109.439 47.924 105.207 47.924C102.018 47.924 99.135 48.5373 96.559 49.764C93.983 50.9907 91.8977 52.5547 90.303 54.456C88.7084 56.296 87.7884 58.228 87.543 60.252L87.451 55.56C87.7577 53.4133 88.463 51.328 89.567 49.304C90.671 47.28 92.143 45.44 93.983 43.784C95.8844 42.0667 98.123 40.7173 100.699 39.736C103.275 38.7547 106.188 38.264 109.439 38.264ZM162.832 78.008C157.864 78.008 153.479 77.272 149.676 75.8C145.935 74.2667 143.021 72.028 140.936 69.084C138.851 66.14 137.808 62.5827 137.808 58.412C137.808 54.3027 138.82 50.7453 140.844 47.74C142.868 44.7347 145.751 42.404 149.492 40.748C153.295 39.092 157.741 38.264 162.832 38.264C164.243 38.264 165.592 38.356 166.88 38.54C168.229 38.724 169.548 38.9693 170.836 39.276L193.928 39.368V48.384C190.8 48.4453 187.611 48.0773 184.36 47.28C181.171 46.4213 178.349 45.5013 175.896 44.52L175.62 43.876C177.705 44.8573 179.668 46.084 181.508 47.556C183.348 48.9667 184.82 50.6227 185.924 52.524C187.089 54.364 187.672 56.5107 187.672 58.964C187.672 62.9507 186.66 66.3853 184.636 69.268C182.612 72.0893 179.729 74.2667 175.988 75.8C172.308 77.272 167.923 78.008 162.832 78.008ZM178.196 103.86V101.652C178.196 98.8307 177.276 96.868 175.436 95.764C173.657 94.66 171.204 94.108 168.076 94.108H153.816C151.056 94.108 148.725 93.8933 146.824 93.464C144.984 93.0347 143.512 92.4213 142.408 91.624C141.304 90.8267 140.507 89.876 140.016 88.772C139.525 87.7293 139.28 86.5947 139.28 85.368C139.28 82.9147 140.077 81.0747 141.672 79.848C143.267 78.56 145.413 77.7013 148.112 77.272C150.811 76.8427 153.785 76.7507 157.036 76.996L162.832 78.008C158.968 78.1307 156.085 78.468 154.184 79.02C152.344 79.5107 151.424 80.5227 151.424 82.056C151.424 82.976 151.792 83.712 152.528 84.264C153.264 84.7547 154.307 85 155.656 85H170.652C174.761 85 178.257 85.4293 181.14 86.288C184.084 87.208 186.323 88.7107 187.856 90.796C189.389 92.9427 190.156 95.856 190.156 99.536V103.86H178.196ZM162.832 69.36C165.469 69.36 167.769 68.9307 169.732 68.072C171.756 67.2133 173.32 65.9867 174.424 64.392C175.528 62.736 176.08 60.7733 176.08 58.504C176.08 56.1733 175.528 54.18 174.424 52.524C173.32 50.868 171.787 49.6107 169.824 48.752C167.861 47.832 165.531 47.372 162.832 47.372C160.195 47.372 157.864 47.832 155.84 48.752C153.816 49.6107 152.252 50.868 151.148 52.524C150.044 54.18 149.492 56.1733 149.492 58.504C149.492 60.7733 150.044 62.736 151.148 64.392C152.252 65.9867 153.785 67.2133 155.748 68.072C157.772 68.9307 160.133 69.36 162.832 69.36ZM201.739 39.276H213.699V85H201.739V39.276ZM231.271 49.12C227.836 49.12 224.861 49.7947 222.347 51.144C219.832 52.432 217.808 54.0267 216.275 55.928C214.741 57.8293 213.668 59.6693 213.055 61.448L212.963 56.388C213.024 55.652 213.269 54.5787 213.699 53.168C214.128 51.696 214.772 50.132 215.631 48.476C216.489 46.7587 217.624 45.1333 219.035 43.6C220.445 42.0053 222.163 40.7173 224.187 39.736C226.211 38.7547 228.572 38.264 231.271 38.264V49.12ZM260.929 86.012C256.39 86.012 252.25 85.0307 248.509 83.068C244.829 81.044 241.885 78.2533 239.677 74.696C237.53 71.0773 236.457 66.9067 236.457 62.184C236.457 57.3387 237.561 53.1373 239.769 49.58C241.977 46.0227 244.951 43.2627 248.693 41.3C252.495 39.276 256.789 38.264 261.573 38.264C266.847 38.264 271.079 39.3373 274.269 41.484C277.519 43.5693 279.881 46.4213 281.353 50.04C282.825 53.6587 283.561 57.7067 283.561 62.184C283.561 64.8827 283.131 67.6427 282.273 70.464C281.414 73.224 280.095 75.8 278.317 78.192C276.538 80.5227 274.207 82.424 271.325 83.896C268.442 85.3067 264.977 86.012 260.929 86.012ZM264.793 76.812C268.411 76.812 271.539 76.1987 274.177 74.972C276.814 73.7453 278.838 72.028 280.249 69.82C281.659 67.612 282.365 65.0667 282.365 62.184C282.365 59.056 281.629 56.4187 280.157 54.272C278.746 52.064 276.722 50.408 274.085 49.304C271.509 48.1387 268.411 47.556 264.793 47.556C259.702 47.556 255.746 48.9053 252.925 51.604C250.103 54.2413 248.693 57.768 248.693 62.184C248.693 65.128 249.367 67.704 250.717 69.912C252.066 72.0587 253.937 73.7453 256.329 74.972C258.782 76.1987 261.603 76.812 264.793 76.812ZM282.365 39.276H294.325V85H283.193C283.193 85 283.101 84.4173 282.917 83.252C282.794 82.0253 282.671 80.492 282.549 78.652C282.426 76.812 282.365 75.0027 282.365 73.224V39.276ZM305.149 39.276H317.109V85H305.149V39.276ZM338.361 38.264C341.182 38.264 343.789 38.632 346.181 39.368C348.573 40.104 350.658 41.2387 352.437 42.772C354.216 44.3053 355.596 46.268 356.577 48.66C357.558 50.9907 358.049 53.7813 358.049 57.032V85H346.089V59.148C346.089 55.284 345.138 52.4627 343.237 50.684C341.397 48.844 338.361 47.924 334.129 47.924C330.94 47.924 328.057 48.5373 325.481 49.764C322.905 50.9907 320.82 52.5547 319.225 54.456C317.63 56.296 316.71 58.228 316.465 60.252L316.373 55.56C316.68 53.4133 317.385 51.328 318.489 49.304C319.593 47.28 321.065 45.44 322.905 43.784C324.806 42.0667 327.045 40.7173 329.621 39.736C332.197 38.7547 335.11 38.264 338.361 38.264ZM378.197 38.264C381.018 38.264 383.625 38.632 386.017 39.368C388.409 40.104 390.494 41.2387 392.273 42.772C394.052 44.3053 395.432 46.268 396.413 48.66C397.456 50.9907 397.977 53.7813 397.977 57.032V85H386.017V59.148C386.017 55.284 385.066 52.4627 383.165 50.684C381.264 48.844 378.197 47.924 373.965 47.924C370.776 47.924 367.893 48.5373 365.317 49.764C362.741 50.9907 360.656 52.5547 359.061 54.456C357.466 56.296 356.577 58.228 356.393 60.252L356.209 55.284C356.516 53.26 357.252 51.236 358.417 49.212C359.582 47.188 361.116 45.348 363.017 43.692C364.918 42.036 367.126 40.7173 369.641 39.736C372.217 38.7547 375.069 38.264 378.197 38.264ZM492.936 72.856L489.072 74.42V25.476H501.308V85H489.072L440.956 37.988L444.82 36.424V85H432.584V25.476H444.82L492.936 72.856ZM555.622 69.82H567.214C566.723 72.948 565.404 75.7387 563.258 78.192C561.172 80.6453 558.32 82.5773 554.702 83.988C551.083 85.3987 546.667 86.104 541.454 86.104C535.627 86.104 530.475 85.184 525.998 83.344C521.52 81.4427 518.024 78.7133 515.51 75.156C512.995 71.5987 511.738 67.3053 511.738 62.276C511.738 57.2467 512.964 52.9533 515.418 49.396C517.871 45.7773 521.275 43.0173 525.63 41.116C530.046 39.2147 535.198 38.264 541.086 38.264C547.096 38.264 552.095 39.2147 556.082 41.116C560.068 43.0173 563.012 45.9 564.914 49.764C566.876 53.5667 567.704 58.4427 567.398 64.392H523.79C524.096 66.7227 524.955 68.8387 526.366 70.74C527.838 72.6413 529.8 74.144 532.254 75.248C534.768 76.352 537.743 76.904 541.178 76.904C544.98 76.904 548.139 76.26 550.654 74.972C553.23 73.6227 554.886 71.9053 555.622 69.82ZM540.534 47.372C536.118 47.372 532.53 48.3533 529.77 50.316C527.01 52.2173 525.231 54.5787 524.434 57.4H555.53C555.223 54.3333 553.751 51.9107 551.114 50.132C548.538 48.292 545.011 47.372 540.534 47.372ZM572.448 39.276H607.96V48.568H572.448V39.276ZM584.224 26.764H596.184V85H584.224V26.764ZM675.175 76.72L671.403 76.628L686.307 39.276H699.463L679.315 85H668.091L653.371 48.108H657.419L642.239 85H631.015L611.419 39.276H624.575L638.927 76.72H635.155L648.587 39.276H662.295L675.175 76.72ZM731.371 86.104C725.605 86.104 720.515 85.184 716.099 83.344C711.744 81.504 708.34 78.836 705.887 75.34C703.433 71.7827 702.207 67.428 702.207 62.276C702.207 57.124 703.433 52.7693 705.887 49.212C708.34 45.5933 711.744 42.864 716.099 41.024C720.515 39.184 725.605 38.264 731.371 38.264C737.136 38.264 742.165 39.184 746.459 41.024C750.813 42.864 754.217 45.5933 756.671 49.212C759.124 52.7693 760.351 57.124 760.351 62.276C760.351 67.428 759.124 71.7827 756.671 75.34C754.217 78.836 750.813 81.504 746.459 83.344C742.165 85.184 737.136 86.104 731.371 86.104ZM731.371 76.904C734.56 76.904 737.412 76.352 739.927 75.248C742.503 74.0827 744.527 72.4267 745.999 70.28C747.471 68.072 748.207 65.404 748.207 62.276C748.207 59.148 747.471 56.48 745.999 54.272C744.527 52.0027 742.533 50.2853 740.019 49.12C737.504 47.9547 734.621 47.372 731.371 47.372C728.181 47.372 725.299 47.9547 722.723 49.12C720.147 50.2853 718.092 51.972 716.559 54.18C715.087 56.388 714.351 59.0867 714.351 62.276C714.351 65.404 715.087 68.072 716.559 70.28C718.031 72.4267 720.055 74.0827 722.631 75.248C725.207 76.352 728.12 76.904 731.371 76.904ZM769.192 39.276H781.152V85H769.192V39.276ZM798.724 49.12C795.289 49.12 792.315 49.7947 789.8 51.144C787.285 52.432 785.261 54.0267 783.728 55.928C782.195 57.8293 781.121 59.6693 780.508 61.448L780.416 56.388C780.477 55.652 780.723 54.5787 781.152 53.168C781.581 51.696 782.225 50.132 783.084 48.476C783.943 46.7587 785.077 45.1333 786.488 43.6C787.899 42.0053 789.616 40.7173 791.64 39.736C793.664 38.7547 796.025 38.264 798.724 38.264V49.12ZM806.946 20.876H818.906V85H806.946V20.876ZM857.454 39.276L830.222 63.288L830.498 55.928L859.57 85H844.39L819.182 59.332L841.17 39.276H857.454Z" fill="black"/>
</svg>
