<svg width="2029" height="2030" viewBox="0 0 2029 2030" fill="none" xmlns="http://www.w3.org/2000/svg">
<path d="M861.84 198.238V1745.14" stroke="#272727" stroke-width="7.48392"/>
<path d="M1617.02 749.6L535.408 1831.21" stroke="#272727" stroke-width="7.48392"/>
<path d="M990.138 315.98L411.98 1295.28" stroke="#272727" stroke-width="7.48392"/>
<path d="M766.232 222.06L949.405 1758.07" stroke="#272727" stroke-width="7.48392"/>
<path d="M1581.39 680.119L635.462 1882.2" stroke="#272727" stroke-width="7.48392"/>
<path d="M907.571 323.782L449.442 1364.65" stroke="#272727" stroke-width="7.48392"/>
<path d="M604.053 292.584L1108.24 1755.01" stroke="#272727" stroke-width="7.48392"/>
<path d="M1497.7 567.695L827.693 1942.78" stroke="#272727" stroke-width="7.48392"/>
<path d="M763.723 362.08L536.326 1476.34" stroke="#272727" stroke-width="7.48392"/>
<path d="M468.201 389.015L1254.09 1721.41" stroke="#272727" stroke-width="7.48392"/>
<path d="M1398.78 480.261L1016.65 1961.39" stroke="#272727" stroke-width="7.48392"/>
<path d="M638.527 425.25L638.062 1562.48" stroke="#272727" stroke-width="7.48392"/>
<path d="M336.024 535.531L1414.02 1644.95" stroke="#272727" stroke-width="7.48392"/>
<path d="M1261.86 404.699L1239.89 1934.17" stroke="#272727" stroke-width="7.48392"/>
<path d="M510.092 530.568L777.887 1635.82" stroke="#272727" stroke-width="7.48392"/>
<path d="M256.188 675.729L1528.32 1555.83" stroke="#272727" stroke-width="7.48392"/>
<path d="M1139.27 368.387L1413.38 1873.25" stroke="#272727" stroke-width="7.48392"/>
<path d="M426.012 637.21L902.417 1669.84" stroke="#272727" stroke-width="7.48392"/>
<path d="M205.363 826.964L1622.29 1447.62" stroke="#272727" stroke-width="7.48392"/>
<path d="M1013.4 356.455L1570.16 1781.16" stroke="#272727" stroke-width="7.48392"/>
<path d="M364.69 756.686L1029.73 1679.18" stroke="#272727" stroke-width="7.48392"/>
<path d="M184.584 980.182L1691.99 1327.47" stroke="#272727" stroke-width="7.48392"/>
<path d="M891.412 368.063L1702.59 1664.89" stroke="#272727" stroke-width="7.48392"/>
<path d="M328.125 881.59L1152.62 1664.84" stroke="#272727" stroke-width="7.48392"/>
<path d="M192.57 1134.67L1738.23 1196.42" stroke="#272727" stroke-width="7.48392"/>
<path d="M773.637 402.102L1811.21 1526.02" stroke="#272727" stroke-width="7.48392"/>
<path d="M315.341 1011.17L1270.78 1627.96" stroke="#272727" stroke-width="7.48392"/>
<path d="M231.051 1290.7L1759.68 1053.65" stroke="#272727" stroke-width="7.48392"/>
<path d="M660.177 459.951L1894.76 1363.04" stroke="#272727" stroke-width="7.48392"/>
<path d="M327.743 1145.87L1384.07 1567.13" stroke="#272727" stroke-width="7.48392"/>
<path d="M320.803 1471.6L1747.05 872.676" stroke="#272727" stroke-width="7.48392"/>
<path d="M536.77 561.851L1952.8 1140.32" stroke="#272727" stroke-width="7.48392"/>
<path d="M379.688 1307.72L1506.45 1461.62" stroke="#272727" stroke-width="7.48392"/>
<path d="M415.603 1590.29L1708.93 741.65" stroke="#272727" stroke-width="7.48392"/>
<path d="M462.288 656.418L1959.98 967.35" stroke="#272727" stroke-width="7.48392"/>
<path d="M443.659 1418.43L1579.61 1364.56" stroke="#272727" stroke-width="7.48392"/>
<path d="M558.998 1709.33L1630.57 593.702" stroke="#272727" stroke-width="7.48392"/>
<path d="M396.305 788.552L1925.62 757.754" stroke="#272727" stroke-width="7.48392"/>
<path d="M548.032 1535.53L1643.38 1229.77" stroke="#272727" stroke-width="7.48392"/>
<path d="M667.384 1769.35L1561.09 506.747" stroke="#272727" stroke-width="7.48392"/>
<path d="M369.539 883.021L1877.26 625.084" stroke="#272727" stroke-width="7.48392"/>
<path d="M630.689 1599.12L1668.37 1133.83" stroke="#272727" stroke-width="7.48392"/>
<path d="M793.6 1815.45L1472.04 425.262" stroke="#272727" stroke-width="7.48392"/>
<path d="M356.744 988.735L1803.15 491.075" stroke="#272727" stroke-width="7.48392"/>
<path d="M729.938 1653.36L1679.02 1026.84" stroke="#272727" stroke-width="7.48392"/>
<path d="M925.241 1840.55L1371.29 359.353" stroke="#272727" stroke-width="7.48392"/>
<path d="M361.124 1094.85L1708.67 371.064" stroke="#272727" stroke-width="7.48392"/>
<path d="M836.342 1690.81L1672.32 919.823" stroke="#272727" stroke-width="7.48392"/>
<path d="M1087.63 1842.13L1236.96 302.46" stroke="#272727" stroke-width="7.48392"/>
<path d="M389.201 1220.45L1570.17 248.3" stroke="#272727" stroke-width="7.48392"/>
<path d="M971.294 1712.56L1641.29 793.646" stroke="#272727" stroke-width="7.48392"/>
<path d="M1252.58 1810.51L1089.13 272.271" stroke="#272727" stroke-width="7.48392"/>
<path d="M443.37 1342.03L1404.64 152.187" stroke="#272727" stroke-width="7.48392"/>
<path d="M1112.56 1706.98L1584 672.077" stroke="#272727" stroke-width="7.48392"/>
<path d="M1388.85 1756.22L957.361 270.721" stroke="#272727" stroke-width="7.48392"/>
<path d="M509.849 1437.39L1246.83 97.0105" stroke="#272727" stroke-width="7.48392"/>
<path d="M1232.8 1678.94L1514.85 577.241" stroke="#272727" stroke-width="7.48392"/>
<path d="M1510.24 1681.21L830.865 291.477" stroke="#272727" stroke-width="7.48392"/>
<path d="M589.637 1517.53L1086.33 70.7864" stroke="#272727" stroke-width="7.48392"/>
<path d="M1343.26 1631.77L1432.59 498.061" stroke="#272727" stroke-width="7.48392"/>
<path d="M1624.23 1578.8L701.132 337.519" stroke="#272727" stroke-width="7.48392"/>
<path d="M689.229 1587.02L911.708 73.6538" stroke="#272727" stroke-width="7.48392"/>
<path d="M1451.02 1560.88L1330.56 430.051" stroke="#272727" stroke-width="7.48392"/>
<path d="M1715.15 1460.86L585.245 404.358" stroke="#272727" stroke-width="7.48392"/>
<path d="M796.647 1635.9L745.32 107.135" stroke="#272727" stroke-width="7.48392"/>
<path d="M1541.52 1474.16L1221.08 383.009" stroke="#272727" stroke-width="7.48392"/>
<path d="M1779.71 1337.85L489.523 484.437" stroke="#272727" stroke-width="7.48392"/>
<path d="M903.222 1663.52L597.824 164.691" stroke="#272727" stroke-width="7.48392"/>
<path d="M1610.73 1379.9L1112.91 357.418" stroke="#272727" stroke-width="7.48392"/>
<path d="M1829.34 1175.92L392.872 601.946" stroke="#272727" stroke-width="7.48392"/>
<path d="M1037.14 1672.6L434.065 266.879" stroke="#272727" stroke-width="7.48392"/>
<path d="M1672.4 1251.37L977.536 351.119" stroke="#272727" stroke-width="7.48392"/>
<path d="M1844.13 1055.55L339.394 696.86" stroke="#272727" stroke-width="7.48392"/>
<path d="M1132.69 1662.3L331.358 359.366" stroke="#272727" stroke-width="7.48392"/>
<path d="M1699.85 1153.05L881.303 363.572" stroke="#272727" stroke-width="7.48392"/>
<path d="M1835.7 889.873L289.693 837.355" stroke="#272727" stroke-width="7.48392"/>
<path d="M1259.02 1625.9L214.75 508.19" stroke="#272727" stroke-width="7.48392"/>
<path d="M1713.67 1014.1L754.564 403.029" stroke="#272727" stroke-width="7.48392"/>
<path d="M1797.22 736.676L269.221 977.764" stroke="#272727" stroke-width="7.48392"/>
<path d="M1370.29 1568.56L133.324 668.739" stroke="#272727" stroke-width="7.48392"/>
<path d="M1700.91 881.759L643.471 463.292" stroke="#272727" stroke-width="7.48392"/>
<path d="M1711.48 562.866L280.944 1151.48" stroke="#272727" stroke-width="7.48392"/>
<path d="M1488.95 1471.04L77.1338 882.359" stroke="#272727" stroke-width="7.48392"/>
<path d="M1651.41 726.317L525.785 564.286" stroke="#272727" stroke-width="7.48392"/>
<path d="M1593.62 419.267L329.683 1311.09" stroke="#272727" stroke-width="7.48392"/>
<path d="M1578.49 1354.18L71.1583 1093.99" stroke="#272727" stroke-width="7.48392"/>
<path d="M1571.38 591.979L437.9 684.165" stroke="#272727" stroke-width="7.48392"/>
<path d="M1406.39 282.346L438.334 1488.89" stroke="#272727" stroke-width="7.48392"/>
<path d="M1650.37 1184.99L129.859 1351.75" stroke="#272727" stroke-width="7.48392"/>
<path d="M1432.78 454.474L368.977 856.492" stroke="#272727" stroke-width="7.48392"/>
<path d="M1162.58 197.395L611.762 1642.9" stroke="#272727" stroke-width="7.48392"/>
<path d="M1671.93 981.52L276.077 1607.1" stroke="#272727" stroke-width="7.48392"/>
<path d="M1240.54 353.105L351.574 1062.35" stroke="#272727" stroke-width="7.48392"/>
</svg>
