<svg width="1949" height="1949" viewBox="0 0 1949 1949" fill="none" xmlns="http://www.w3.org/2000/svg">
<path d="M1808.43 638.222C1808.43 1068.55 1475.58 1417.15 1065.27 1417.15C654.971 1417.15 322.118 1068.55 322.118 638.222C322.118 629.431 326.301 619.485 334.962 608.681C343.601 597.903 356.501 586.52 373.428 574.92C407.273 551.726 456.819 527.938 519.36 506.531C644.413 463.727 820.985 430.592 1026.73 430.592C1232.41 430.592 1428.28 470.201 1572.7 516.289C1644.92 539.334 1704.19 563.975 1745.35 586.045C1765.95 597.087 1781.91 607.432 1792.68 616.55C1798.06 621.111 1802.06 625.293 1804.69 629.026C1807.35 632.794 1808.43 635.849 1808.43 638.222Z" stroke="url(#paint0_linear_505_160)" stroke-width="6"/>
<path d="M1826.62 696.91C1796.11 1126.04 1439.46 1447.77 1030.29 1415.83C621.121 1383.88 313.903 1010.33 344.41 581.193C345.033 572.427 349.909 562.835 359.312 552.735C368.692 542.66 382.363 532.312 400.065 522.062C435.461 501.567 486.557 481.702 550.443 465.223C678.185 432.274 856.618 412.977 1061.79 428.995C1266.91 445.008 1459.43 499.757 1600.18 556.962C1670.56 585.566 1727.93 614.753 1767.41 639.967C1787.17 652.582 1802.35 664.141 1812.44 674.072C1817.49 679.04 1821.18 683.521 1823.54 687.449C1825.92 691.413 1826.78 694.544 1826.62 696.91Z" stroke="url(#paint1_linear_505_160)" stroke-width="6"/>
<path d="M1839.58 751.612C1781.31 1177.57 1404.62 1473.16 998.464 1412.14C592.306 1351.12 310.034 956.537 368.308 530.574C369.498 521.874 374.984 512.652 385.02 503.245C395.031 493.861 409.342 484.511 427.669 475.546C464.313 457.62 516.579 441.441 581.387 429.552C710.972 405.778 890.244 399.237 1093.91 429.834C1297.51 460.423 1486.03 528.76 1622.75 595.859C1691.11 629.411 1746.45 662.617 1784.21 690.586C1803.1 704.579 1817.5 717.193 1826.92 727.82C1831.64 733.136 1835.03 737.87 1837.13 741.957C1839.25 746.081 1839.9 749.266 1839.58 751.612Z" stroke="url(#paint2_linear_505_160)" stroke-width="6"/>
<path d="M1848.6 804.349C1764.22 1225.48 1370.12 1494.97 968.557 1406.61C566.996 1318.25 309.615 905.405 393.995 484.278C395.718 475.68 401.759 466.85 412.353 458.14C422.921 449.453 437.779 441.09 456.619 433.383C494.291 417.972 547.445 405.361 612.851 397.879C743.63 382.918 922.933 388.513 1124.29 432.819C1325.58 477.113 1509.51 558.056 1641.81 634.261C1707.96 672.366 1761.14 709.246 1797.1 739.709C1815.09 754.951 1828.68 768.513 1837.43 779.755C1841.81 785.379 1844.9 790.333 1846.75 794.553C1848.61 798.812 1849.06 802.032 1848.6 804.349Z" stroke="url(#paint3_linear_505_160)" stroke-width="6"/>
<path d="M1854.05 854.302C1745.49 1269.29 1336.54 1513.28 940.812 1399.59C545.087 1285.91 312.048 857.472 420.612 442.484C422.827 434.015 429.366 425.585 440.445 417.564C451.495 409.564 466.809 402.16 486.06 395.662C524.554 382.671 578.341 373.457 644.059 370.14C775.464 363.508 954.116 380.474 1152.54 437.48C1350.91 494.471 1529.82 586.941 1657.47 671.404C1721.3 713.639 1772.25 753.826 1806.38 786.517C1823.46 802.873 1836.24 817.273 1844.33 829.05C1848.37 834.942 1851.17 840.083 1852.77 844.412C1854.38 848.781 1854.65 852.022 1854.05 854.302Z" stroke="url(#paint4_linear_505_160)" stroke-width="6"/>
<path d="M1856.79 912.309C1720.79 1318.31 1296.56 1531.74 909.383 1389.31C522.204 1246.88 318.345 802.413 454.341 396.412C457.115 388.131 464.197 380.203 475.784 373.014C487.342 365.844 503.112 359.58 522.751 354.51C562.019 344.372 616.289 339.123 682.069 340.632C813.596 343.649 990.679 373.671 1184.81 445.084C1378.9 516.478 1551.19 621.838 1672.9 715.453C1733.75 762.264 1781.9 806.089 1813.76 841.202C1829.71 858.77 1841.5 874.072 1848.77 886.414C1852.42 892.587 1854.87 897.921 1856.17 902.356C1857.48 906.832 1857.54 910.083 1856.79 912.309Z" stroke="url(#paint5_linear_505_160)" stroke-width="6"/>
<path d="M1855.91 964.311C1695.91 1360.57 1259.76 1545.74 881.839 1378.16C503.922 1210.59 327.049 753.6 487.047 357.34C490.309 349.262 497.847 341.817 509.842 335.402C521.805 329.005 537.919 323.789 557.823 320.018C597.621 312.478 652.1 310.803 717.661 316.628C848.751 328.275 1023.69 369.866 1213.18 453.886C1402.61 537.883 1568.27 654.35 1684.14 755.774C1742.08 806.489 1787.51 853.388 1817.21 890.526C1832.08 909.107 1842.93 925.153 1849.45 937.949C1852.72 944.35 1854.85 949.834 1855.88 954.345C1856.93 958.899 1856.78 962.143 1855.91 964.311Z" stroke="url(#paint6_linear_505_160)" stroke-width="6"/>
<path d="M1850.27 1030.71C1660.42 1412.2 1211.49 1560.07 847.622 1361.21C483.754 1162.35 342.504 691.94 532.353 310.449C536.22 302.68 544.3 295.895 556.748 290.511C569.163 285.142 585.625 281.299 605.754 279.215C646.003 275.05 700.436 277.968 765.339 289.294C895.116 311.94 1066.31 368.126 1248.74 467.828C1431.12 567.504 1587.32 697.543 1695.04 808.395C1748.91 863.825 1790.59 914.398 1817.36 953.918C1830.75 973.691 1840.34 990.6 1845.86 1003.9C1848.62 1010.56 1850.32 1016.2 1851.01 1020.79C1851.7 1025.42 1851.31 1028.63 1850.27 1030.71Z" stroke="url(#paint7_linear_505_160)" stroke-width="6"/>
<path d="M1839.35 1097.42C1620.49 1461.42 1161.55 1570.49 814.334 1341.21C467.113 1111.94 362.917 631.033 581.778 267.038C586.231 259.632 594.806 253.561 607.632 249.258C620.422 244.966 637.128 242.541 657.354 242.183C697.794 241.468 751.82 249.022 815.63 265.851C943.217 299.502 1109.47 370.116 1283.55 485.062C1457.59 599.978 1603.16 742.92 1701.91 862.601C1751.28 922.446 1788.9 976.411 1812.5 1018.08C1824.31 1038.94 1832.56 1056.61 1837.03 1070.34C1839.27 1077.21 1840.52 1082.98 1840.85 1087.61C1841.18 1092.28 1840.54 1095.44 1839.35 1097.42Z" stroke="url(#paint8_linear_505_160)" stroke-width="6"/>
<path d="M1825.79 1154.15C1583.01 1501.05 1117.88 1575.97 786.929 1321.6C455.976 1067.24 384.404 579.83 627.191 232.925C632.126 225.874 641.082 220.453 654.166 217.107C667.213 213.771 684.041 212.586 704.242 213.723C744.631 215.997 798.016 227.524 860.536 249.025C985.545 292.017 1146.64 374.737 1312.56 502.259C1478.43 629.746 1614.03 783.088 1704.48 909.767C1749.71 973.111 1783.61 1029.72 1804.35 1073.04C1814.73 1094.71 1821.76 1112.95 1825.3 1126.98C1827.07 1133.99 1827.93 1139.84 1827.95 1144.48C1827.96 1149.17 1827.11 1152.27 1825.79 1154.15Z" stroke="url(#paint9_linear_505_160)" stroke-width="6"/>
<path d="M1807.77 1211.6C1541.52 1539.03 1072.42 1578.25 760.018 1299.28C447.612 1020.3 410.139 528.721 676.386 201.295C681.791 194.647 691.094 189.925 704.377 187.587C717.621 185.256 734.487 185.359 754.555 188.035C794.681 193.387 847.125 208.96 907.984 235.178C1029.67 287.602 1184.59 382.405 1341.21 522.258C1497.78 662.074 1622.35 825.364 1703.76 958.615C1744.47 1025.25 1774.34 1084.29 1792.01 1129.08C1800.85 1151.49 1806.6 1170.21 1809.15 1184.48C1810.43 1191.61 1810.89 1197.51 1810.58 1202.14C1810.27 1206.81 1809.2 1209.84 1807.77 1211.6Z" stroke="url(#paint10_linear_505_160)" stroke-width="6"/>
<path d="M1787.07 1264.58C1499.94 1571.98 1029.38 1577.25 736.049 1276.35C442.716 975.463 437.682 482.344 724.813 174.943C730.636 168.709 740.222 164.669 753.628 163.296C766.993 161.928 783.812 163.248 803.658 167.368C843.337 175.606 894.634 194.93 953.626 225.482C1071.58 286.572 1219.9 392.34 1366.94 543.174C1513.95 693.968 1627.49 865.87 1699.94 1004.69C1736.17 1074.1 1762.09 1135.17 1776.77 1181.12C1784.12 1204.11 1788.62 1223.21 1790.23 1237.63C1791.04 1244.84 1791.1 1250.76 1790.49 1255.35C1789.88 1259.99 1788.61 1262.92 1787.07 1264.58Z" stroke="url(#paint11_linear_505_160)" stroke-width="6"/>
<path d="M1763.83 1314.17C1457.84 1600.86 987.992 1573.34 714.393 1252.65C440.794 931.959 467.09 439.583 773.08 152.893C779.279 147.084 789.094 143.722 802.558 143.286C815.98 142.852 832.679 145.342 852.22 150.836C891.29 161.822 941.248 184.68 998.172 219.277C1111.99 288.455 1253.27 404.329 1390.42 565.081C1527.53 725.791 1629.91 905.229 1693.39 1048.79C1725.13 1120.57 1747.11 1183.31 1758.85 1230.19C1764.72 1253.65 1768 1273.02 1768.69 1287.51C1769.04 1294.77 1768.73 1300.68 1767.83 1305.21C1766.92 1309.8 1765.47 1312.64 1763.83 1314.17Z" stroke="url(#paint12_linear_505_160)" stroke-width="6"/>
<path d="M1739.81 1358.12C1417.7 1624.68 950.327 1567.16 695.915 1229.54C441.502 891.924 496.458 402.152 818.568 135.592C825.087 130.197 835.074 127.468 848.539 127.895C861.961 128.32 878.484 131.875 897.669 138.61C936.028 152.075 984.562 178.088 1039.36 216.265C1148.94 292.599 1283.21 417.3 1410.73 586.53C1538.22 755.717 1629.96 941.374 1684.95 1088.73C1712.45 1162.41 1730.74 1226.44 1739.72 1273.99C1744.22 1297.78 1746.36 1317.32 1746.21 1331.84C1746.13 1339.1 1745.48 1344.98 1744.31 1349.45C1743.14 1353.97 1741.53 1356.7 1739.81 1358.12Z" stroke="url(#paint13_linear_505_160)" stroke-width="6"/>
<path d="M1531.84 1402.24C1194.93 1647.84 731.735 1560.77 497.299 1207.6C262.863 854.432 346.052 369.052 682.966 123.446C689.779 118.479 699.9 116.389 713.317 117.67C726.689 118.947 742.977 123.544 761.738 131.485C799.248 147.362 846.19 176.41 898.685 217.996C1003.65 301.149 1130.46 434.148 1247.96 611.167C1365.44 788.14 1446.28 979.283 1492.65 1129.86C1515.84 1205.16 1530.39 1270.23 1536.61 1318.26C1539.72 1342.29 1540.73 1361.94 1539.74 1376.41C1539.24 1383.66 1538.25 1389.49 1536.83 1393.87C1535.39 1398.31 1533.63 1400.93 1531.84 1402.24Z" stroke="url(#paint14_linear_505_160)" stroke-width="6"/>
<path d="M1503.39 1442.13C1153.05 1666.12 695.667 1550.11 481.851 1182.83C268.035 815.549 378.861 336.273 729.207 112.29C736.285 107.765 746.503 106.312 759.823 108.435C773.098 110.549 789.093 116.162 807.367 125.268C843.903 143.474 889.099 175.42 939.121 220.231C1039.14 309.831 1158.11 450.561 1265.28 634.646C1372.42 818.685 1442.17 1014.57 1479.85 1167.79C1498.69 1244.41 1509.49 1310.28 1512.95 1358.61C1514.68 1382.8 1514.57 1402.47 1512.74 1416.86C1511.83 1424.06 1510.51 1429.82 1508.84 1434.11C1507.15 1438.45 1505.25 1440.95 1503.39 1442.13Z" stroke="url(#paint15_linear_505_160)" stroke-width="6"/>
<path d="M1478.31 1473.57C1117.84 1679.13 666.488 1539.59 470.247 1161.67C274.005 783.758 407.308 310.811 767.775 105.251C775.053 101.101 785.323 100.179 798.527 102.988C811.686 105.788 827.397 112.222 845.22 122.263C880.853 142.339 924.489 176.588 972.337 223.935C1068.01 318.607 1180.2 465.327 1278.56 654.739C1376.89 844.103 1437.32 1043.36 1467.72 1198.35C1482.93 1275.85 1490.61 1342.2 1491.79 1390.65C1492.37 1414.9 1491.33 1434.55 1488.83 1448.82C1487.59 1455.97 1485.99 1461.65 1484.12 1465.84C1482.23 1470.09 1480.21 1472.49 1478.31 1473.57Z" stroke="url(#paint16_linear_505_160)" stroke-width="6"/>
<path d="M1454.97 1500.3C1086.3 1689.19 641.183 1529.16 460.853 1142.62C280.522 756.082 433.393 289.68 802.062 100.799C809.501 96.9877 819.796 96.5346 832.871 99.9449C845.901 103.344 861.33 110.489 878.718 121.336C913.483 143.023 955.652 179.233 1001.48 228.723C1093.13 327.679 1199.11 479.389 1289.49 673.118C1379.84 866.798 1431.92 1068.63 1455.85 1224.86C1467.81 1302.98 1472.72 1369.62 1471.88 1418.09C1471.46 1442.33 1469.6 1461.91 1466.51 1476.06C1464.97 1483.14 1463.14 1488.75 1461.1 1492.85C1459.03 1497.01 1456.92 1499.31 1454.97 1500.3Z" stroke="url(#paint17_linear_505_160)" stroke-width="6"/>
<path d="M1429.36 1526.96C1052.86 1698.02 615.169 1516.89 451.844 1122.12C288.519 727.36 461.538 268.754 838.033 97.6942C845.625 94.2444 855.927 94.2826 868.84 98.3145C881.708 102.332 896.81 110.208 913.709 121.875C947.494 145.201 988.044 183.39 1031.68 235.02C1118.92 338.253 1218.18 494.872 1300.04 692.72C1381.87 890.519 1425.11 1094.63 1442.22 1251.84C1450.77 1330.45 1452.77 1397.26 1449.82 1445.64C1448.35 1469.84 1445.64 1489.31 1441.94 1503.3C1440.08 1510.3 1438.01 1515.81 1435.8 1519.81C1433.55 1523.87 1431.34 1526.06 1429.36 1526.96Z" stroke="url(#paint18_linear_505_160)" stroke-width="6"/>
<path d="M1402.2 1552.89C1018.56 1705.46 589.344 1503.27 443.661 1100.98C297.979 698.693 491.115 248.993 874.764 96.4191C882.497 93.3438 892.783 93.8813 905.505 98.5366C918.181 103.175 932.919 111.777 949.283 124.253C982 149.196 1020.82 189.315 1062.12 243.01C1144.7 350.374 1236.93 511.649 1309.94 713.264C1382.93 914.828 1417.09 1120.82 1427.22 1278.7C1432.28 1357.64 1431.33 1424.47 1426.24 1472.65C1423.7 1496.76 1420.13 1516.08 1415.81 1529.87C1413.65 1536.78 1411.34 1542.18 1408.95 1546.07C1406.53 1550.01 1404.22 1552.09 1402.2 1552.89Z" stroke="url(#paint19_linear_505_160)" stroke-width="6"/>
<path d="M1362.68 1586.45C970.481 1712.88 554.543 1482.22 433.815 1070.94C313.087 659.667 533.398 223.901 925.593 97.4702C933.493 94.9235 943.721 96.1505 956.132 101.653C968.498 107.135 982.678 116.711 998.244 130.263C1029.37 157.357 1065.64 200.008 1103.57 256.372C1179.4 369.074 1261.55 536.225 1322.06 742.34C1382.54 948.403 1404.01 1156.27 1404.44 1314.5C1404.65 1393.63 1399.61 1460.26 1391.58 1508C1387.56 1531.88 1382.81 1550.92 1377.66 1564.4C1375.08 1571.14 1372.44 1576.37 1369.82 1580.1C1367.16 1583.87 1364.73 1585.78 1362.68 1586.45Z" stroke="url(#paint20_linear_505_160)" stroke-width="6"/>
<path d="M1321.16 1617.43C922.027 1717.15 521.111 1458.93 425.884 1040.35C330.657 621.775 577.277 201.773 976.412 102.054C984.447 100.046 994.577 101.959 1006.62 108.287C1018.63 114.591 1032.19 125.104 1046.89 139.677C1076.29 168.815 1109.87 213.824 1144.26 272.629C1213.01 390.212 1284.73 562.558 1332.45 772.327C1380.16 982.044 1388.82 1190.93 1379.53 1348.86C1374.89 1427.84 1365.76 1493.99 1354.81 1541.09C1349.34 1564.66 1343.43 1583.34 1337.46 1596.44C1334.47 1602.99 1331.52 1608.04 1328.67 1611.58C1325.79 1615.16 1323.25 1616.91 1321.16 1617.43Z" stroke="url(#paint21_linear_505_160)" stroke-width="6"/>
<path d="M1292.88 1636.21C890.093 1718.18 499.938 1442.45 421.664 1020.02C343.39 597.601 606.72 188.892 1009.51 106.927C1017.62 105.278 1027.66 107.636 1039.44 114.492C1051.18 121.322 1064.31 132.425 1078.41 147.637C1106.6 178.05 1138.34 224.505 1170.33 284.78C1234.28 405.301 1298.99 580.669 1338.22 792.363C1377.44 1004.01 1377.67 1213.09 1362.02 1370.47C1354.2 1449.17 1342.41 1514.86 1329.58 1561.43C1323.16 1584.74 1316.51 1603.14 1310.01 1615.96C1306.76 1622.38 1303.61 1627.29 1300.62 1630.7C1297.59 1634.15 1294.99 1635.78 1292.88 1636.21Z" stroke="url(#paint22_linear_505_160)" stroke-width="6"/>
<path d="M1258.16 1656.91C851.944 1717.47 475.557 1421.47 417.717 995.444C359.876 569.417 642.55 175.152 1048.77 114.586C1056.94 113.368 1066.86 116.253 1078.29 123.723C1089.69 131.165 1102.26 142.948 1115.62 158.886C1142.31 190.751 1171.77 238.825 1200.82 300.715C1258.89 424.464 1315.07 603.03 1344.06 816.529C1373.04 1029.98 1363.2 1238.81 1340 1395.16C1328.4 1473.35 1313.47 1538.33 1298.41 1584.17C1290.87 1607.1 1283.34 1625.13 1276.24 1637.59C1272.69 1643.83 1269.3 1648.57 1266.15 1651.81C1262.96 1655.1 1260.28 1656.59 1258.16 1656.91Z" stroke="url(#paint23_linear_505_160)" stroke-width="6"/>
<path d="M1215.55 1679.17C806.591 1714.03 447.868 1394.85 414.58 965.94C381.292 537.034 686.082 161.299 1095.04 126.444C1103.26 125.742 1112.99 129.246 1123.98 137.423C1134.93 145.57 1146.81 158.125 1159.22 174.875C1184.04 208.365 1210.69 258.21 1236.13 321.818C1286.99 449.003 1332.83 630.787 1349.51 845.727C1366.19 1060.61 1344.39 1268.45 1312.25 1423.06C1296.19 1500.37 1277.55 1564.3 1259.89 1609.1C1251.05 1631.52 1242.5 1649.04 1234.7 1661.03C1230.79 1667.03 1227.14 1671.55 1223.81 1674.59C1220.44 1677.67 1217.68 1678.99 1215.55 1679.17Z" stroke="url(#paint24_linear_505_160)" stroke-width="6"/>
<path d="M1176.58 1696.71C766.431 1708.55 424.547 1369.68 413.243 939.515C401.939 509.354 725.508 151.279 1135.66 139.443C1143.91 139.205 1153.44 143.25 1164 152.033C1174.51 160.783 1185.73 173.986 1197.27 191.41C1220.34 226.245 1244.4 277.516 1266.55 342.461C1310.84 472.321 1347.31 656.418 1352.98 871.986C1358.64 1087.5 1326.24 1293.81 1286.25 1446.4C1266.25 1522.69 1244.37 1585.48 1224.44 1629.23C1214.47 1651.12 1205.04 1668.13 1196.63 1679.67C1192.42 1685.45 1188.54 1689.75 1185.06 1692.6C1181.54 1695.49 1178.72 1696.65 1176.58 1696.71Z" stroke="url(#paint25_linear_505_160)" stroke-width="6"/>
<path d="M1131.12 1714.07C721.045 1699.65 399.533 1339.55 413.301 909.463C427.069 479.38 770.889 142.667 1180.96 157.083C1189.21 157.373 1198.49 162.02 1208.52 171.462C1218.5 180.868 1228.93 194.764 1239.43 212.893C1260.43 249.139 1281.46 301.853 1299.79 368.094C1336.43 500.544 1362.11 686.631 1355.21 902.159C1348.32 1117.63 1303.96 1321.49 1255.16 1471.23C1230.75 1546.11 1205.26 1607.38 1182.82 1649.77C1171.6 1670.98 1161.19 1687.36 1152.12 1698.34C1147.59 1703.84 1143.47 1707.88 1139.83 1710.51C1136.14 1713.16 1133.26 1714.14 1131.12 1714.07Z" stroke="url(#paint26_linear_505_160)" stroke-width="6"/>
<path d="M1083.24 1728.82C674.851 1687.35 375.633 1306.73 415.235 878.418C454.836 450.102 818.218 136.76 1226.61 178.227C1234.83 179.061 1243.81 184.313 1253.25 194.397C1262.65 204.444 1272.22 219.001 1281.61 237.788C1300.39 275.348 1318.21 329.346 1332.51 396.665C1361.12 531.271 1375.56 718.684 1355.72 933.328C1335.88 1147.92 1279.36 1348.44 1221.64 1494.66C1192.78 1567.78 1163.66 1627.24 1138.71 1668.07C1126.23 1688.5 1114.86 1704.16 1105.16 1714.52C1100.3 1719.7 1095.94 1723.47 1092.15 1725.84C1088.31 1728.25 1085.38 1729.04 1083.24 1728.82Z" stroke="url(#paint27_linear_505_160)" stroke-width="6"/>
<path d="M1034 1740.56C628.951 1671.9 353.492 1272.07 419.061 847.276C484.629 422.481 866.325 134.041 1271.37 202.7C1279.52 204.081 1288.17 209.923 1296.97 220.617C1305.74 231.271 1314.41 246.438 1322.64 265.814C1339.09 304.551 1353.6 359.629 1363.78 427.767C1384.14 564.008 1387.16 752.005 1354.3 964.886C1321.45 1177.72 1252.85 1374.05 1186.36 1516.12C1153.11 1587.16 1120.43 1644.56 1093.05 1683.64C1079.36 1703.19 1067.05 1718.06 1056.74 1727.75C1051.58 1732.6 1047 1736.07 1043.07 1738.19C1039.09 1740.33 1036.11 1740.92 1034 1740.56Z" stroke="url(#paint28_linear_505_160)" stroke-width="6"/>
<path d="M985.004 1748.82C584.854 1653.68 333.867 1236.53 424.721 816.887C515.576 397.244 913.776 134.447 1313.93 229.587C1321.98 231.502 1330.26 237.903 1338.41 249.154C1346.52 260.364 1354.27 276.07 1361.32 295.948C1375.42 335.69 1386.6 391.612 1392.69 460.284C1404.85 597.594 1396.62 785.418 1351.09 995.721C1305.57 1205.97 1225.35 1397.41 1150.5 1534.83C1113.07 1603.55 1077.01 1658.69 1047.35 1695.89C1032.51 1714.5 1019.35 1728.53 1008.47 1737.53C1003.03 1742.03 998.253 1745.19 994.206 1747.04C990.108 1748.93 987.097 1749.32 985.004 1748.82Z" stroke="url(#paint29_linear_505_160)" stroke-width="6"/>
<path d="M934.614 1753.93C541.069 1632.2 316.025 1199.1 432.266 786.402C548.507 373.707 961.906 138.088 1355.45 259.819C1363.38 262.271 1371.25 269.216 1378.7 280.988C1386.11 292.718 1392.88 308.911 1398.71 329.22C1410.36 369.824 1418.11 426.379 1420 495.317C1423.77 633.16 1404.11 820.048 1345.85 1026.87C1287.61 1233.65 1195.89 1419.33 1112.81 1551.46C1071.27 1617.53 1031.93 1670.14 1000.07 1705.28C984.124 1722.86 970.129 1735.98 958.728 1744.23C953.023 1748.35 948.064 1751.19 943.911 1752.77C939.708 1754.38 936.676 1754.57 934.614 1753.93Z" stroke="url(#paint30_linear_505_160)" stroke-width="6"/>
<path d="M879.861 1755.63C495.281 1605.66 299.378 1157.28 442.58 754.01C585.782 350.744 1013.74 145.649 1398.32 295.625C1406.07 298.647 1413.47 306.151 1420.12 318.434C1426.74 330.674 1432.43 347.318 1436.9 368C1445.84 409.35 1449.84 466.33 1447.17 535.24C1441.84 673.025 1409.88 858.038 1338.11 1060.14C1266.36 1262.2 1162.61 1440.78 1071.01 1566.57C1025.2 1629.47 982.482 1679.1 948.375 1711.85C931.31 1728.23 916.483 1740.31 904.565 1747.71C898.602 1751.41 893.468 1753.88 889.22 1755.16C884.922 1756.45 881.881 1756.42 879.861 1755.63Z" stroke="url(#paint31_linear_505_160)" stroke-width="6"/>
<path d="M836.994 1754.13C460.72 1582.54 288.294 1123.68 452.128 729.152C615.962 334.62 1053.89 154.112 1430.16 325.705C1437.75 329.166 1444.76 337.082 1450.76 349.724C1456.74 362.321 1461.55 379.263 1464.95 400.169C1471.74 441.965 1472.79 499.088 1466.56 567.744C1454.11 705.022 1412.64 887.947 1330.53 1085.68C1248.44 1283.36 1135.61 1455.79 1037.64 1576.2C988.649 1636.4 943.427 1683.54 907.678 1714.3C889.791 1729.69 874.362 1740.9 862.079 1747.61C855.934 1750.97 850.68 1753.15 846.372 1754.18C842.013 1755.23 838.975 1755.03 836.994 1754.13Z" stroke="url(#paint32_linear_505_160)" stroke-width="6"/>
<path d="M788.873 1749.67C423.266 1554.35 277.863 1085.33 464.335 702.015C650.806 318.696 1098.42 166.485 1464.02 361.803C1471.4 365.745 1477.93 374.098 1483.19 387.099C1488.43 400.056 1492.25 417.274 1494.42 438.356C1498.77 480.508 1496.49 537.59 1486.28 605.719C1465.87 741.945 1413.84 921.879 1320.38 1114C1226.94 1306.07 1104.29 1470.97 999.5 1584.89C947.101 1641.85 899.222 1686.01 861.751 1714.43C843.002 1728.65 826.95 1738.86 814.301 1744.77C807.971 1747.73 802.601 1749.56 798.24 1750.32C793.828 1751.09 790.804 1750.7 788.873 1749.67Z" stroke="url(#paint33_linear_505_160)" stroke-width="6"/>
<path d="M741.99 1742.18C388.186 1524.26 269.859 1046.96 477.892 676.046C685.926 305.132 1141.43 181.27 1495.23 399.191C1502.38 403.593 1508.42 412.345 1512.92 425.652C1517.41 438.915 1520.24 456.341 1521.21 477.522C1523.14 519.869 1517.6 576.704 1503.52 644.07C1475.36 778.768 1413.14 955.112 1308.87 1141.02C1204.63 1326.88 1072.77 1483.78 961.66 1590.92C906.101 1644.5 855.785 1685.57 816.758 1711.58C797.231 1724.6 780.625 1733.78 767.661 1738.89C761.174 1741.45 755.708 1742.94 751.312 1743.43C746.864 1743.92 743.863 1743.34 741.99 1742.18Z" stroke="url(#paint34_linear_505_160)" stroke-width="6"/>
<path d="M690.723 1730.57C351.45 1488.56 263.562 1004.09 494.567 648.448C725.572 292.803 1187.9 200.807 1527.17 442.815C1534.03 447.708 1539.51 456.866 1543.16 470.456C1546.8 484.001 1548.52 501.585 1548.15 522.785C1547.4 565.172 1538.28 621.497 1519.97 687.736C1483.36 820.182 1410.14 991.819 1294.35 1170.08C1178.59 1348.29 1037.11 1495.7 919.477 1594.89C860.655 1644.49 807.854 1681.98 767.27 1705.23C746.964 1716.87 729.815 1724.87 716.557 1729.07C709.923 1731.17 704.375 1732.29 699.957 1732.46C695.489 1732.64 692.526 1731.86 690.723 1730.57Z" stroke="url(#paint35_linear_505_160)" stroke-width="6"/>
<path d="M642.662 1716.25C318.624 1452.27 260.106 962.949 512.057 623.308C764.008 283.667 1230.95 222.414 1554.99 486.392C1561.54 491.734 1566.46 501.243 1569.29 515.046C1572.11 528.805 1572.76 546.467 1571.11 567.6C1567.81 609.852 1555.32 665.459 1533.06 730.354C1488.55 860.113 1405.13 1026.56 1278.84 1196.81C1152.58 1367.01 1002.51 1504.76 879.138 1595.98C817.446 1641.59 762.494 1675.51 720.592 1696.03C699.627 1706.29 682.03 1713.15 668.546 1716.47C661.799 1718.12 656.195 1718.86 651.775 1718.75C647.305 1718.63 644.39 1717.65 642.662 1716.25Z" stroke="url(#paint36_linear_505_160)" stroke-width="6"/>
<path d="M591.558 1697.05C285.523 1410.41 259.149 918.038 532.698 597.301C806.246 276.564 1276.09 248.959 1582.13 535.596C1588.33 541.403 1592.61 551.248 1594.53 565.221C1596.44 579.15 1595.95 596.818 1592.92 617.781C1586.86 659.696 1570.77 714.274 1544.32 777.417C1491.43 903.673 1397.32 1063.74 1260.2 1224.51C1123.12 1385.25 964.394 1511.91 835.348 1594.05C770.821 1635.12 713.781 1665.02 670.637 1682.48C649.051 1691.21 631.048 1696.79 617.379 1699.13C610.541 1700.3 604.901 1700.64 600.498 1700.21C596.046 1699.77 593.197 1698.58 591.558 1697.05Z" stroke="url(#paint37_linear_505_160)" stroke-width="6"/>
<path d="M535.105 1670.87C251.315 1360.07 261.686 867.047 558.251 569.662C854.817 272.277 1325.29 283.132 1609.08 593.927C1614.83 600.231 1618.37 610.404 1619.25 624.49C1620.11 638.533 1618.3 656.107 1613.72 676.758C1604.57 718.047 1584.46 771.142 1553.39 831.93C1491.27 953.476 1385.54 1105.36 1236.88 1254.44C1088.25 1403.48 920.588 1516.78 785.824 1588.12C718.438 1623.79 659.348 1648.93 615.038 1662.82C592.867 1669.76 574.505 1673.85 560.705 1675.06C553.801 1675.67 548.154 1675.55 543.795 1674.76C539.39 1673.96 536.631 1672.54 535.105 1670.87Z" stroke="url(#paint38_linear_505_160)" stroke-width="6"/>
<path d="M486.134 1643.4C223.816 1312.51 267.16 821.458 582.87 546.605C898.58 271.752 1367.17 317.12 1629.49 648.015C1634.81 654.734 1637.66 665.149 1637.59 679.263C1637.52 693.336 1634.54 710.733 1628.59 730.995C1616.69 771.51 1593.09 822.995 1558.03 881.35C1487.93 998.031 1372.31 1141.77 1214.04 1279.56C1055.81 1417.31 880.98 1518.02 741.778 1579.28C672.172 1609.92 611.547 1630.66 566.418 1641.25C543.838 1646.55 525.249 1649.28 511.402 1649.48C504.475 1649.58 498.85 1649.04 494.554 1647.93C490.213 1646.81 487.55 1645.19 486.134 1643.4Z" stroke="url(#paint39_linear_505_160)" stroke-width="6"/>
<path d="M612.744 1604.58C377.304 1252.15 459.109 766.51 795.323 519.851C1131.54 273.192 1594.97 358.821 1830.41 711.252C1835.2 718.417 1837.22 729.049 1836.04 743.109C1834.86 757.128 1830.52 774.208 1823 793.887C1807.97 833.236 1780.39 882.507 1740.87 937.637C1661.84 1047.87 1535.32 1181.14 1366.76 1304.8C1198.25 1428.43 1016.1 1513.7 872.563 1562.75C800.787 1587.27 738.74 1602.71 692.933 1609.37C670.015 1612.7 651.275 1613.82 637.461 1612.82C630.55 1612.32 624.986 1611.3 620.791 1609.83C616.553 1608.34 614.02 1606.49 612.744 1604.58Z" stroke="url(#paint40_linear_505_160)" stroke-width="6"/>
<path d="M551.813 1555.31C350.142 1180.55 476.602 705.54 834.066 494.29C1191.53 283.04 1644.84 415.417 1846.51 790.176C1850.62 797.805 1851.64 808.601 1849.16 822.472C1846.69 836.305 1840.79 852.863 1831.48 871.682C1812.87 909.312 1780.86 955.542 1736.41 1006.39C1647.54 1108.05 1509.27 1227.81 1330.05 1333.72C1150.88 1439.61 961.692 1505.94 814.285 1540.14C740.577 1557.24 677.393 1566.29 631.188 1568.25C608.07 1569.24 589.316 1568.44 575.661 1566.04C568.83 1564.84 563.386 1563.26 559.347 1561.36C555.268 1559.44 552.911 1557.35 551.813 1555.31Z" stroke="url(#paint41_linear_505_160)" stroke-width="6"/>
<path d="M495.421 1499.72C329.631 1106.09 499.777 646.305 875.195 472.662C1250.61 299.019 1689.43 477.138 1855.22 870.77C1858.6 878.793 1858.61 889.648 1854.85 903.199C1851.1 916.713 1843.68 932.587 1832.67 950.363C1810.64 985.907 1774.47 1028.64 1725.5 1074.69C1627.59 1166.77 1478.81 1271.8 1290.58 1358.87C1102.4 1445.91 907.943 1492.55 758.056 1511.5C683.108 1520.97 619.384 1523.51 573.218 1520.74C550.119 1519.35 531.53 1516.64 518.165 1512.86C511.479 1510.96 506.209 1508.83 502.365 1506.53C498.484 1504.21 496.328 1501.87 495.421 1499.72Z" stroke="url(#paint42_linear_505_160)" stroke-width="6"/>
<path d="M454.675 1451.81C318.402 1045.91 521.958 601.284 909.041 458.569C1296.12 315.853 1720.5 528.963 1856.77 934.861C1859.55 943.14 1858.76 953.968 1854.01 967.173C1849.28 980.344 1840.71 995.569 1828.42 1012.4C1803.83 1046.05 1764.63 1085.73 1712.41 1127.67C1608 1211.55 1451.92 1304.22 1257.84 1375.78C1063.81 1447.31 866.492 1478.07 715.657 1484.83C640.235 1488.2 576.515 1485.57 530.693 1479.07C507.766 1475.82 489.433 1471.61 476.388 1466.75C469.862 1464.32 464.765 1461.77 461.101 1459.16C457.403 1456.53 455.422 1454.03 454.675 1451.81Z" stroke="url(#paint43_linear_505_160)" stroke-width="6"/>
<path d="M421.111 1406.02C312.105 991.157 544.687 562.452 940.292 448.299C1335.9 334.147 1745.11 577.662 1854.11 992.523C1856.34 1000.99 1854.83 1011.74 1849.21 1024.56C1843.62 1037.36 1834.06 1051.92 1820.68 1067.81C1793.92 1099.59 1752.18 1136.31 1697.3 1174.35C1587.58 1250.41 1425.73 1331.48 1227.37 1388.72C1029.06 1445.94 830.187 1462.24 679.27 1457.99C603.807 1455.86 540.417 1448.59 495.138 1438.76C472.483 1433.85 454.474 1428.31 441.783 1422.52C435.435 1419.62 430.519 1416.7 427.037 1413.83C423.523 1410.94 421.71 1408.3 421.111 1406.02Z" stroke="url(#paint44_linear_505_160)" stroke-width="6"/>
<path d="M386.613 1350.87C309.392 928.238 573.741 520.251 976.735 439.389C1379.73 358.528 1769.2 635.325 1846.42 1057.96C1847.99 1066.59 1845.67 1077.18 1839.1 1089.5C1832.55 1101.79 1821.93 1115.51 1807.38 1130.24C1778.3 1159.69 1733.91 1192.82 1676.33 1226.17C1561.18 1292.85 1393.71 1360.19 1191.63 1400.74C989.616 1441.28 790.134 1440.97 640.018 1424.17C564.955 1415.77 502.317 1403.25 457.927 1389.68C435.717 1382.9 418.184 1375.88 405.973 1369.05C399.864 1365.63 395.185 1362.31 391.931 1359.16C388.648 1355.99 387.038 1353.2 386.613 1350.87Z" stroke="url(#paint45_linear_505_160)" stroke-width="6"/>
<path d="M354.657 1289.38C311.734 861.415 607.989 478.257 1016.05 433.312C1424.11 388.367 1789.91 698.603 1832.83 1126.57C1833.71 1135.31 1830.54 1145.66 1823 1157.35C1815.49 1169.02 1803.79 1181.75 1788.12 1195.14C1756.77 1221.91 1709.87 1251 1649.8 1279.14C1529.71 1335.41 1357.41 1387.7 1152.79 1410.24C948.23 1432.77 749.485 1414.84 601.258 1384.82C527.139 1369.81 465.733 1351.8 422.593 1334.36C401.009 1325.63 384.104 1317.09 372.486 1309.2C366.675 1305.26 362.28 1301.54 359.291 1298.11C356.274 1294.66 354.894 1291.74 354.657 1289.38Z" stroke="url(#paint46_linear_505_160)" stroke-width="6"/>
<path d="M332.912 1238.72C317.419 808.704 637.484 447.187 1047.5 430.964C1457.51 414.741 1802.67 749.937 1818.17 1179.96C1818.48 1188.74 1814.66 1198.84 1806.4 1209.98C1798.15 1221.09 1785.67 1232.98 1769.17 1245.24C1736.19 1269.76 1687.53 1295.49 1625.81 1319.35C1502.38 1367.07 1327.13 1407.16 1121.53 1415.3C915.995 1423.43 718.842 1391.59 572.864 1351.25C499.871 1331.07 439.752 1308.79 397.823 1288.37C376.845 1278.15 360.523 1268.44 349.436 1259.76C343.889 1255.41 339.742 1251.39 336.978 1247.76C334.189 1244.1 332.998 1241.09 332.912 1238.72Z" stroke="url(#paint47_linear_505_160)" stroke-width="6"/>
<path d="M306.89 1161.6C331.89 732.079 684.377 405.356 1093.92 431.533C1503.46 457.71 1815.45 826.904 1790.45 1256.43C1789.94 1265.2 1785.18 1274.86 1775.91 1285.1C1766.66 1295.3 1753.12 1305.84 1735.55 1316.34C1700.43 1337.33 1649.59 1357.91 1585.92 1375.29C1458.61 1410.04 1280.44 1431.85 1075.08 1418.72C869.777 1405.6 676.575 1353.57 535.099 1298.35C464.356 1270.74 406.624 1242.36 366.819 1217.71C346.903 1205.37 331.573 1194.03 321.356 1184.24C316.245 1179.35 312.495 1174.92 310.086 1171.02C307.655 1167.09 306.752 1163.97 306.89 1161.6Z" stroke="url(#paint48_linear_505_160)" stroke-width="6"/>
<path d="M290.475 1093.83C349.878 668.043 727.35 373.561 1133.34 435.764C1539.34 497.967 1820.56 893.368 1761.16 1319.16C1759.95 1327.86 1754.44 1337.06 1744.37 1346.44C1734.34 1355.79 1720 1365.1 1701.65 1374.01C1664.96 1391.83 1612.65 1407.86 1547.81 1419.56C1418.17 1442.96 1238.88 1448.97 1035.3 1417.78C831.773 1386.6 643.434 1317.72 506.893 1250.22C438.619 1216.47 383.37 1183.1 345.686 1155.02C326.831 1140.97 312.466 1128.32 303.071 1117.66C298.371 1112.33 294.991 1107.59 292.903 1103.5C290.796 1099.37 290.148 1096.18 290.475 1093.83Z" stroke="url(#paint49_linear_505_160)" stroke-width="6"/>
<path d="M280.385 1031.46C370.59 611.665 768.383 348.191 1168.68 442.651C1568.98 537.111 1820.61 953.834 1730.4 1373.63C1728.56 1382.2 1722.4 1390.94 1711.69 1399.48C1701 1408.01 1686.03 1416.15 1667.08 1423.57C1629.2 1438.4 1575.88 1450.2 1510.37 1456.69C1379.4 1469.66 1200.2 1461.34 999.476 1413.97C798.812 1366.62 616.032 1282.89 484.798 1204.68C419.178 1165.57 366.517 1127.89 330.984 1096.88C313.206 1081.36 299.804 1067.6 291.211 1056.22C286.912 1050.53 283.887 1045.53 282.103 1041.28C280.303 1037 279.889 1033.77 280.385 1031.46Z" stroke="url(#paint50_linear_505_160)" stroke-width="6"/>
<path d="M1643.24 742.107C1643.24 1172.43 1310.38 1521.04 900.08 1521.04C489.777 1521.04 156.924 1172.43 156.924 742.107C156.924 733.316 161.107 723.371 169.768 712.566C178.407 701.789 191.307 690.405 208.233 678.805C242.079 655.611 291.625 631.823 354.166 610.416C479.219 567.613 655.79 534.477 861.533 534.477C1067.22 534.477 1263.09 574.086 1407.51 620.174C1479.72 643.22 1539 667.86 1580.16 689.93C1600.75 700.972 1616.71 711.317 1627.48 720.435C1632.87 724.996 1636.87 729.178 1639.5 732.911C1642.15 736.679 1643.24 739.735 1643.24 742.107Z" stroke="url(#paint51_linear_505_160)" stroke-width="6"/>
<path d="M1661.42 800.796C1630.92 1229.93 1274.27 1551.66 865.099 1519.71C455.928 1487.77 148.709 1114.21 179.217 685.08C179.84 676.314 184.716 666.721 194.119 656.621C203.498 646.546 217.17 636.198 234.872 625.948C270.268 605.453 321.364 585.588 385.25 569.11C512.992 536.16 691.425 516.863 896.599 532.881C1101.72 548.895 1294.23 603.643 1434.99 660.848C1505.37 689.452 1562.73 718.639 1602.22 743.853C1621.98 756.468 1637.16 768.027 1647.25 777.958C1652.3 782.926 1655.99 787.407 1658.35 791.335C1660.73 795.299 1661.59 798.431 1661.42 800.796Z" stroke="url(#paint52_linear_505_160)" stroke-width="6"/>
<path d="M1674.39 855.497C1616.12 1281.46 1239.43 1577.04 833.269 1516.02C427.112 1455 144.839 1060.42 203.113 634.459C204.303 625.759 209.789 616.537 219.825 607.13C229.836 597.746 244.148 588.396 262.474 579.431C299.118 561.505 351.384 545.326 416.192 533.436C545.777 509.663 725.049 503.122 928.711 533.719C1132.32 564.308 1320.84 632.645 1457.56 699.744C1525.92 733.296 1581.26 766.502 1619.02 794.47C1637.91 808.464 1652.31 821.078 1661.73 831.705C1666.44 837.021 1669.84 841.755 1671.93 845.842C1674.05 849.966 1674.71 853.151 1674.39 855.497Z" stroke="url(#paint53_linear_505_160)" stroke-width="6"/>
<path d="M1683.37 908.235C1598.99 1329.36 1204.88 1598.86 803.323 1510.5C401.762 1422.14 144.38 1009.29 228.76 588.164C230.483 579.566 236.524 570.735 247.119 562.026C257.687 553.339 272.544 544.976 291.385 537.269C329.057 521.858 382.211 509.247 447.616 501.765C578.396 486.804 757.698 492.399 959.052 536.705C1160.35 580.999 1344.27 661.942 1476.57 738.147C1542.73 776.252 1595.91 813.131 1631.87 843.595C1649.86 858.837 1663.45 872.399 1672.2 883.641C1676.57 889.265 1679.67 894.219 1681.51 898.439C1683.37 902.697 1683.83 905.918 1683.37 908.235Z" stroke="url(#paint54_linear_505_160)" stroke-width="6"/>
<path d="M1688.86 958.188C1580.3 1373.18 1171.34 1617.17 775.619 1503.48C379.893 1389.79 146.854 961.358 255.418 546.369C257.634 537.9 264.172 529.47 275.251 521.45C286.301 513.449 301.615 506.045 320.866 499.548C359.361 486.556 413.147 477.342 478.865 474.025C610.27 467.393 788.922 484.36 987.346 541.366C1185.72 598.356 1364.62 690.826 1492.28 775.29C1556.11 817.524 1607.06 857.711 1641.19 890.402C1658.27 906.758 1671.05 921.158 1679.13 932.935C1683.18 938.827 1685.98 943.968 1687.58 948.297C1689.19 952.666 1689.46 955.908 1688.86 958.188Z" stroke="url(#paint55_linear_505_160)" stroke-width="6"/>
<path d="M1691.56 1016.19C1555.56 1422.19 1131.33 1635.62 744.149 1493.2C356.969 1350.77 153.111 906.297 289.107 500.297C291.881 492.016 298.963 484.088 310.55 476.899C322.107 469.728 337.878 463.464 357.516 458.394C396.784 448.256 451.055 443.008 516.834 444.517C648.362 447.534 825.445 477.556 1019.58 548.969C1213.66 620.363 1385.96 725.722 1507.66 819.338C1568.52 866.149 1616.66 909.973 1648.53 945.087C1664.47 962.655 1676.26 977.957 1683.54 990.298C1687.18 996.472 1689.63 1001.81 1690.94 1006.24C1692.25 1010.72 1692.3 1013.97 1691.56 1016.19Z" stroke="url(#paint56_linear_505_160)" stroke-width="6"/>
<path d="M1690.71 1068.2C1530.71 1464.46 1094.56 1649.62 716.644 1482.05C338.727 1314.47 161.854 857.486 321.852 461.226C325.113 453.149 332.652 445.703 344.647 439.288C356.61 432.891 372.724 427.675 392.628 423.904C432.426 416.364 486.904 414.689 552.465 420.514C683.556 432.161 858.498 473.752 1047.98 557.772C1237.42 641.77 1403.08 758.236 1518.95 859.66C1576.89 910.375 1622.31 957.275 1652.02 994.412C1666.88 1012.99 1677.73 1029.04 1684.26 1041.83C1687.52 1048.24 1689.65 1053.72 1690.69 1058.23C1691.73 1062.79 1691.59 1066.03 1690.71 1068.2Z" stroke="url(#paint57_linear_505_160)" stroke-width="6"/>
<path d="M1685.08 1134.6C1495.23 1516.09 1046.29 1663.95 682.427 1465.09C318.559 1266.23 177.309 795.825 367.159 414.335C371.025 406.566 379.105 399.781 391.553 394.397C403.968 389.027 420.43 385.184 440.56 383.101C480.808 378.936 535.241 381.853 600.145 393.179C729.921 415.826 901.111 472.011 1083.55 571.714C1265.93 671.39 1422.13 801.429 1529.85 912.281C1583.71 967.711 1625.4 1018.28 1652.16 1057.8C1665.55 1077.58 1675.14 1094.49 1680.66 1107.79C1683.43 1114.45 1685.13 1120.09 1685.81 1124.67C1686.51 1129.3 1686.11 1132.52 1685.08 1134.6Z" stroke="url(#paint58_linear_505_160)" stroke-width="6"/>
<path d="M1674.15 1201.31C1455.29 1565.3 996.36 1674.37 649.139 1445.1C301.919 1215.83 197.723 734.918 416.584 370.923C421.036 363.518 429.611 357.446 442.437 353.143C455.228 348.851 471.934 346.426 492.159 346.068C532.599 345.353 586.626 352.907 650.435 369.737C778.023 403.387 944.28 474.001 1118.36 588.947C1292.39 703.863 1437.97 846.805 1536.71 966.487C1586.09 1026.33 1623.71 1080.3 1647.31 1121.97C1659.12 1142.82 1667.36 1160.49 1671.83 1174.23C1674.07 1181.1 1675.33 1186.87 1675.65 1191.49C1675.98 1196.16 1675.34 1199.33 1674.15 1201.31Z" stroke="url(#paint59_linear_505_160)" stroke-width="6"/>
<path d="M1660.56 1258.03C1417.77 1604.94 952.648 1679.86 621.695 1425.49C290.742 1171.13 219.171 683.716 461.958 336.811C466.892 329.76 475.848 324.338 488.933 320.993C501.979 317.657 518.807 316.472 539.008 317.609C579.397 319.882 632.782 331.409 695.302 352.911C820.311 395.903 981.407 478.623 1147.32 606.144C1313.2 733.632 1448.8 886.974 1539.25 1013.65C1584.48 1077 1618.37 1133.61 1639.11 1176.92C1649.49 1198.59 1656.53 1216.83 1660.06 1230.86C1661.83 1237.88 1662.7 1243.73 1662.71 1248.37C1662.73 1253.05 1661.87 1256.16 1660.56 1258.03Z" stroke="url(#paint60_linear_505_160)" stroke-width="6"/>
<path d="M1642.53 1315.49C1376.28 1642.91 907.19 1682.14 594.784 1403.16C282.378 1124.19 244.905 632.607 511.151 305.18C516.557 298.533 525.86 293.81 539.143 291.472C552.386 289.141 569.252 289.244 589.321 291.921C629.446 297.272 681.89 312.845 742.75 339.064C864.441 391.488 1019.36 486.29 1175.97 626.143C1332.54 765.959 1457.12 929.249 1538.53 1062.5C1579.23 1129.13 1609.1 1188.18 1626.78 1232.96C1635.62 1255.37 1641.37 1274.1 1643.92 1288.36C1645.2 1295.5 1645.65 1301.4 1645.34 1306.02C1645.03 1310.7 1643.97 1313.72 1642.53 1315.49Z" stroke="url(#paint61_linear_505_160)" stroke-width="6"/>
<path d="M1621.88 1368.46C1334.75 1675.86 864.187 1681.13 570.855 1380.24C277.522 1079.35 272.488 586.229 559.619 278.828C565.442 272.594 575.028 268.554 588.434 267.181C601.799 265.813 618.618 267.133 638.464 271.253C678.143 279.491 729.44 298.815 788.432 329.367C906.388 390.457 1054.71 496.225 1201.75 647.059C1348.76 797.853 1462.3 969.755 1534.75 1108.57C1570.98 1177.98 1596.89 1239.05 1611.58 1285.01C1618.93 1308 1623.43 1327.1 1625.04 1341.51C1625.84 1348.72 1625.91 1354.64 1625.3 1359.23C1624.68 1363.87 1623.42 1366.81 1621.88 1368.46Z" stroke="url(#paint62_linear_505_160)" stroke-width="6"/>
<path d="M1598.64 1417.97C1292.65 1704.66 822.797 1677.14 549.199 1356.45C275.6 1035.76 301.895 543.385 607.885 256.695C614.084 250.887 623.899 247.524 637.363 247.088C650.785 246.654 667.484 249.145 687.025 254.639C726.095 265.624 776.053 288.482 832.977 323.08C946.796 392.258 1088.07 508.132 1225.22 668.883C1362.33 829.593 1464.71 1009.03 1528.19 1152.59C1559.93 1224.38 1581.92 1287.12 1593.66 1334C1599.53 1357.45 1602.81 1376.82 1603.5 1391.32C1603.84 1398.57 1603.53 1404.48 1602.63 1409.02C1601.72 1413.6 1600.28 1416.44 1598.64 1417.97Z" stroke="url(#paint63_linear_505_160)" stroke-width="6"/>
<path d="M1574.62 1462.01C1252.51 1728.57 785.133 1671.04 530.721 1333.43C276.308 995.81 331.264 506.037 653.374 239.478C659.894 234.082 669.88 231.353 683.345 231.78C696.767 232.206 713.291 235.76 732.476 242.495C770.834 255.961 819.368 281.974 874.17 320.15C983.747 396.484 1118.01 521.185 1245.54 690.416C1373.03 859.602 1464.76 1045.26 1519.76 1192.62C1547.26 1266.3 1565.54 1330.33 1574.53 1377.87C1579.02 1401.66 1581.17 1421.21 1581.01 1435.72C1580.93 1442.98 1580.28 1448.86 1579.12 1453.33C1577.94 1457.85 1576.33 1460.58 1574.62 1462.01Z" stroke="url(#paint64_linear_505_160)" stroke-width="6"/>
<path d="M447.549 1708.47C212.109 1356.03 293.914 870.396 630.128 623.737C966.342 377.078 1429.78 462.707 1665.22 815.138C1670.01 822.304 1672.03 832.936 1670.84 846.995C1669.67 861.014 1665.33 878.094 1657.81 897.774C1642.77 937.122 1615.2 986.394 1575.67 1041.52C1496.65 1151.76 1370.12 1285.03 1201.57 1408.69C1033.05 1532.32 850.91 1617.59 707.368 1666.63C635.592 1691.16 573.544 1706.6 527.738 1713.26C504.82 1716.59 486.079 1717.71 472.266 1716.71C465.355 1716.21 459.791 1715.19 455.596 1713.71C451.358 1712.22 448.825 1710.38 447.549 1708.47Z" stroke="url(#paint65_linear_505_160)" stroke-width="6"/>
<path d="M386.618 1659.19C184.947 1284.43 311.408 809.424 668.871 598.174C1026.33 386.924 1479.65 519.302 1681.32 894.06C1685.42 901.69 1686.45 912.485 1683.97 926.356C1681.49 940.19 1675.59 956.747 1666.29 975.567C1647.67 1013.2 1615.66 1059.43 1571.22 1110.27C1482.35 1211.93 1344.07 1331.7 1164.85 1437.61C985.681 1543.49 796.497 1609.82 649.09 1644.02C575.382 1661.12 512.198 1670.17 465.993 1672.14C442.875 1673.12 424.121 1672.32 410.466 1669.92C403.635 1668.72 398.191 1667.14 394.152 1665.24C390.073 1663.33 387.716 1661.23 386.618 1659.19Z" stroke="url(#paint66_linear_505_160)" stroke-width="6"/>
<path d="M330.227 1603.61C164.437 1209.98 334.583 750.19 710 576.547C1085.42 402.904 1524.24 581.023 1690.03 974.656C1693.4 982.678 1693.41 993.533 1689.65 1007.08C1685.9 1020.6 1678.49 1036.47 1667.47 1054.25C1645.44 1089.79 1609.28 1132.52 1560.31 1178.57C1462.39 1270.65 1313.62 1375.69 1125.39 1462.75C937.206 1549.79 742.749 1596.44 592.862 1615.39C517.913 1624.86 454.189 1627.4 408.023 1624.63C384.925 1623.24 366.336 1620.53 352.97 1616.74C346.285 1614.85 341.015 1612.72 337.171 1610.41C333.29 1608.09 331.134 1605.76 330.227 1603.61Z" stroke="url(#paint67_linear_505_160)" stroke-width="6"/>
<path d="M289.48 1555.69C153.207 1149.79 356.763 705.17 743.846 562.455C1130.93 419.739 1555.31 632.848 1691.58 1038.75C1694.36 1047.03 1693.57 1057.85 1688.82 1071.06C1684.08 1084.23 1675.52 1099.46 1663.22 1116.29C1638.64 1149.94 1599.43 1189.61 1547.22 1231.56C1442.8 1315.43 1286.73 1408.1 1092.64 1479.66C898.61 1551.2 701.297 1581.96 550.462 1588.71C475.04 1592.09 411.32 1589.46 365.498 1582.96C342.572 1579.7 324.238 1575.5 311.193 1570.64C304.667 1568.21 299.57 1565.66 295.906 1563.05C292.209 1560.42 290.227 1557.92 289.48 1555.69Z" stroke="url(#paint68_linear_505_160)" stroke-width="6"/>
<path d="M255.918 1509.9C146.911 1095.04 379.494 666.337 775.098 552.185C1170.7 438.032 1579.91 681.547 1688.92 1096.41C1691.14 1104.87 1689.63 1115.62 1684.02 1128.45C1678.42 1141.24 1668.87 1155.81 1655.49 1171.7C1628.73 1203.48 1586.99 1240.2 1532.11 1278.24C1422.39 1354.3 1260.54 1435.37 1062.18 1492.6C863.869 1549.83 664.993 1566.13 514.077 1561.87C438.614 1559.74 375.224 1552.48 329.945 1542.65C307.29 1537.73 289.281 1532.2 276.59 1526.4C270.241 1523.5 265.326 1520.59 261.844 1517.72C258.33 1514.82 256.516 1512.18 255.918 1509.9Z" stroke="url(#paint69_linear_505_160)" stroke-width="6"/>
<path d="M221.418 1454.76C144.198 1032.12 408.546 624.138 811.54 543.276C1214.53 462.414 1604 739.211 1681.22 1161.85C1682.8 1170.48 1680.48 1181.07 1673.91 1193.38C1667.36 1205.67 1656.73 1219.4 1642.19 1234.12C1613.11 1263.57 1568.72 1296.7 1511.13 1330.05C1395.99 1396.74 1228.51 1464.08 1026.44 1504.63C824.421 1545.16 624.94 1544.86 474.823 1528.06C399.761 1519.65 337.122 1507.13 292.732 1493.57C270.522 1486.78 252.989 1479.77 240.778 1472.93C234.669 1469.52 229.991 1466.2 226.737 1463.05C223.453 1459.87 221.844 1457.09 221.418 1454.76Z" stroke="url(#paint70_linear_505_160)" stroke-width="6"/>
<path d="M189.463 1393.26C146.539 965.301 442.795 582.143 850.854 537.198C1258.91 492.253 1624.71 802.489 1667.64 1230.45C1668.51 1239.19 1665.35 1249.54 1657.81 1261.24C1650.29 1272.9 1638.6 1285.64 1622.92 1299.03C1591.58 1325.8 1544.67 1354.89 1484.61 1383.03C1364.51 1439.29 1192.21 1491.59 987.595 1514.13C783.036 1536.66 584.291 1518.72 436.063 1488.71C361.945 1473.7 300.539 1455.68 257.398 1438.24C235.814 1429.52 218.909 1420.98 207.292 1413.09C201.48 1409.14 197.085 1405.42 194.096 1402C191.08 1398.54 189.699 1395.62 189.463 1393.26Z" stroke="url(#paint71_linear_505_160)" stroke-width="6"/>
<path d="M167.718 1342.61C152.225 912.59 472.289 551.073 882.301 534.85C1292.31 518.627 1637.48 853.823 1652.97 1283.84C1653.29 1292.63 1649.47 1302.73 1641.2 1313.87C1632.96 1324.98 1620.48 1336.87 1603.98 1349.13C1570.99 1373.64 1522.34 1399.37 1460.61 1423.24C1337.19 1470.95 1161.94 1511.05 956.34 1519.18C750.801 1527.32 553.648 1495.48 407.67 1455.13C334.676 1434.96 274.558 1412.68 232.629 1392.25C211.65 1382.03 195.329 1372.33 184.241 1363.64C178.695 1359.3 174.547 1355.28 171.784 1351.65C168.995 1347.99 167.803 1344.98 167.718 1342.61Z" stroke="url(#paint72_linear_505_160)" stroke-width="6"/>
<path d="M141.696 1265.49C166.695 835.965 519.182 509.242 928.726 535.418C1338.27 561.595 1650.25 930.79 1625.25 1360.32C1624.74 1369.09 1619.99 1378.75 1610.72 1388.98C1601.47 1399.19 1587.93 1409.73 1570.36 1420.23C1535.23 1441.22 1484.39 1461.8 1420.73 1479.18C1293.42 1513.92 1115.25 1535.73 909.887 1522.61C704.583 1509.48 511.38 1457.45 369.904 1402.24C299.162 1374.63 241.43 1346.25 201.624 1321.59C181.709 1309.26 166.379 1297.91 156.161 1288.13C151.05 1283.23 147.301 1278.8 144.892 1274.91C142.46 1270.98 141.558 1267.86 141.696 1265.49Z" stroke="url(#paint73_linear_505_160)" stroke-width="6"/>
<path d="M125.28 1197.72C184.684 771.928 562.155 477.446 968.15 539.649C1374.14 601.851 1655.37 997.253 1595.96 1423.04C1594.75 1431.74 1589.24 1440.95 1579.18 1450.32C1569.14 1459.68 1554.81 1468.99 1536.46 1477.9C1499.77 1495.72 1447.46 1511.74 1382.62 1523.44C1252.97 1546.84 1073.68 1552.86 870.102 1521.67C666.579 1490.49 478.24 1421.6 341.699 1354.1C273.425 1320.35 218.176 1286.99 180.491 1258.91C161.636 1244.86 147.272 1232.2 137.877 1221.55C133.177 1216.22 129.797 1211.47 127.709 1207.38C125.602 1203.25 124.953 1200.06 125.28 1197.72Z" stroke="url(#paint74_linear_505_160)" stroke-width="6"/>
<path d="M115.191 1135.35C205.396 715.55 603.189 452.075 1003.49 546.535C1403.78 640.995 1655.42 1057.72 1565.21 1477.52C1563.37 1486.09 1557.21 1494.82 1546.49 1503.37C1535.81 1511.9 1520.83 1520.03 1501.89 1527.45C1464.01 1542.29 1410.68 1554.09 1345.18 1560.57C1214.21 1573.54 1035 1565.22 834.282 1517.86C633.618 1470.51 450.838 1386.77 319.605 1308.56C253.984 1269.45 201.323 1231.77 165.79 1200.76C148.012 1185.25 134.61 1171.48 126.017 1160.11C121.719 1154.42 118.693 1149.42 116.909 1145.17C115.109 1140.88 114.695 1137.66 115.191 1135.35Z" stroke="url(#paint75_linear_505_160)" stroke-width="6"/>
<path d="M92.4139 952.191C221.568 543.74 642.149 322.521 1031.66 457.778C1421.17 593.036 1632.47 1033.68 1503.31 1442.13C1500.68 1450.46 1493.73 1458.52 1482.26 1465.92C1470.83 1473.3 1455.17 1479.85 1435.62 1485.29C1396.53 1496.15 1342.35 1502.4 1276.56 1502.1C1145 1501.51 967.44 1474.76 772.136 1406.94C576.886 1339.14 402.846 1236.98 279.586 1145.62C217.953 1099.94 169.082 1057.01 136.631 1022.49C120.394 1005.22 108.348 990.141 100.864 977.936C97.1201 971.831 94.5788 966.543 93.2022 962.133C91.8126 957.681 91.7053 954.432 92.4139 952.191Z" stroke="url(#paint76_linear_505_160)" stroke-width="6"/>
<path d="M94.1879 864.747C263.637 472.832 704.093 299.209 1077.88 476.687C1451.66 654.165 1617.51 1115.67 1448.06 1507.58C1444.61 1515.57 1436.9 1522.82 1424.75 1528.91C1412.64 1534.99 1396.41 1539.78 1376.42 1543.03C1336.45 1549.52 1281.95 1549.76 1216.55 1542.21C1085.78 1527.11 911.887 1480.92 724.476 1391.94C537.116 1302.98 374.301 1182.18 260.9 1077.74C204.195 1025.51 159.907 977.433 131.102 939.525C116.689 920.558 106.225 904.23 100.007 891.267C96.8972 884.782 94.9012 879.243 93.9754 874.707C93.0406 870.127 93.2616 866.889 94.1879 864.747Z" stroke="url(#paint77_linear_505_160)" stroke-width="6"/>
<path d="M107.342 763.52C321.438 396.421 778.906 280.795 1129.08 505.072C1479.25 729.349 1589.71 1208.72 1375.62 1575.82C1371.26 1583.29 1362.77 1589.48 1350 1593.97C1337.26 1598.44 1320.59 1601.11 1300.37 1601.75C1259.95 1603.05 1205.83 1596.27 1141.8 1580.35C1013.79 1548.53 846.627 1480.31 671.066 1367.86C495.551 1255.45 348.128 1114.61 247.829 996.352C197.676 937.22 159.359 883.799 135.216 842.467C123.136 821.788 114.664 804.235 110.013 790.569C107.687 783.732 106.355 777.978 105.968 773.358C105.578 768.692 106.178 765.516 107.342 763.52Z" stroke="url(#paint78_linear_505_160)" stroke-width="6"/>
<path d="M125.03 688.8C370.674 344.114 836.399 273.421 1165.24 530.783C1494.08 788.144 1561.62 1276.19 1315.97 1620.87C1310.98 1627.88 1301.98 1633.22 1288.87 1636.44C1275.8 1639.66 1258.96 1640.69 1238.77 1639.37C1198.4 1636.73 1145.11 1624.72 1082.77 1602.65C958.122 1558.53 797.715 1474.35 632.858 1345.32C468.044 1216.34 333.719 1061.77 244.316 934.273C199.612 870.521 166.187 813.605 145.804 770.103C135.606 748.338 128.723 730.036 125.302 715.976C123.59 708.941 122.774 703.083 122.798 698.446C122.822 693.762 123.7 690.666 125.03 688.8Z" stroke="url(#paint79_linear_505_160)" stroke-width="6"/>
<defs>
<linearGradient id="paint0_linear_505_160" x1="1065.27" y1="427.592" x2="1065.27" y2="1420.15" gradientUnits="userSpaceOnUse">
<stop stop-color="#0A0A0A"/>
<stop offset="1" stop-color="white" stop-opacity="0"/>
</linearGradient>
<linearGradient id="paint1_linear_505_160" x1="1100.45" y1="429.003" x2="1023.21" y2="1418.28" gradientUnits="userSpaceOnUse">
<stop stop-color="#0A0A0A"/>
<stop offset="1" stop-color="white" stop-opacity="0"/>
</linearGradient>
<linearGradient id="paint2_linear_505_160" x1="1132.47" y1="432.594" x2="985.151" y2="1413.17" gradientUnits="userSpaceOnUse">
<stop stop-color="#0A0A0A"/>
<stop offset="1" stop-color="white" stop-opacity="0"/>
</linearGradient>
<linearGradient id="paint3_linear_505_160" x1="1162.6" y1="438.178" x2="949.741" y2="1405.54" gradientUnits="userSpaceOnUse">
<stop stop-color="#0A0A0A"/>
<stop offset="1" stop-color="white" stop-opacity="0"/>
</linearGradient>
<linearGradient id="paint4_linear_505_160" x1="1190.47" y1="445.258" x2="917.34" y2="1395.97" gradientUnits="userSpaceOnUse">
<stop stop-color="#0A0A0A"/>
<stop offset="1" stop-color="white" stop-opacity="0"/>
</linearGradient>
<linearGradient id="paint5_linear_505_160" x1="1222.14" y1="455.619" x2="881.3" y2="1382.18" gradientUnits="userSpaceOnUse">
<stop stop-color="#0A0A0A"/>
<stop offset="1" stop-color="white" stop-opacity="0"/>
</linearGradient>
<linearGradient id="paint6_linear_505_160" x1="1249.8" y1="466.845" x2="850.432" y2="1367.52" gradientUnits="userSpaceOnUse">
<stop stop-color="#0A0A0A"/>
<stop offset="1" stop-color="white" stop-opacity="0"/>
</linearGradient>
<linearGradient id="paint7_linear_505_160" x1="1284.25" y1="483.822" x2="813.173" y2="1345.8" gradientUnits="userSpaceOnUse">
<stop stop-color="#0A0A0A"/>
<stop offset="1" stop-color="white" stop-opacity="0"/>
</linearGradient>
<linearGradient id="paint8_linear_505_160" x1="1317.71" y1="504.025" x2="778.264" y2="1320.99" gradientUnits="userSpaceOnUse">
<stop stop-color="#0A0A0A"/>
<stop offset="1" stop-color="white" stop-opacity="0"/>
</linearGradient>
<linearGradient id="paint9_linear_505_160" x1="1345.36" y1="523.691" x2="750.634" y2="1297.49" gradientUnits="userSpaceOnUse">
<stop stop-color="#0A0A0A"/>
<stop offset="1" stop-color="white" stop-opacity="0"/>
</linearGradient>
<linearGradient id="paint10_linear_505_160" x1="1372.44" y1="546.13" x2="724.569" y2="1271.64" gradientUnits="userSpaceOnUse">
<stop stop-color="#0A0A0A"/>
<stop offset="1" stop-color="white" stop-opacity="0"/>
</linearGradient>
<linearGradient id="paint11_linear_505_160" x1="1396.54" y1="569.238" x2="702.303" y2="1246.03" gradientUnits="userSpaceOnUse">
<stop stop-color="#0A0A0A"/>
<stop offset="1" stop-color="white" stop-opacity="0"/>
</linearGradient>
<linearGradient id="paint12_linear_505_160" x1="1418.3" y1="593.144" x2="682.999" y2="1220.47" gradientUnits="userSpaceOnUse">
<stop stop-color="#0A0A0A"/>
<stop offset="1" stop-color="white" stop-opacity="0"/>
</linearGradient>
<linearGradient id="paint13_linear_505_160" x1="1436.93" y1="616.319" x2="667.17" y2="1196.38" gradientUnits="userSpaceOnUse">
<stop stop-color="#0A0A0A"/>
<stop offset="1" stop-color="white" stop-opacity="0"/>
</linearGradient>
<linearGradient id="paint14_linear_505_160" x1="1272.4" y1="642.56" x2="471.525" y2="1174.19" gradientUnits="userSpaceOnUse">
<stop stop-color="#0A0A0A"/>
<stop offset="1" stop-color="white" stop-opacity="0"/>
</linearGradient>
<linearGradient id="paint15_linear_505_160" x1="1287.88" y1="667.514" x2="459.228" y2="1149.93" gradientUnits="userSpaceOnUse">
<stop stop-color="#0A0A0A"/>
<stop offset="1" stop-color="white" stop-opacity="0"/>
</linearGradient>
<linearGradient id="paint16_linear_505_160" x1="1299.59" y1="688.734" x2="450.292" y2="1129.75" gradientUnits="userSpaceOnUse">
<stop stop-color="#0A0A0A"/>
<stop offset="1" stop-color="white" stop-opacity="0"/>
</linearGradient>
<linearGradient id="paint17_linear_505_160" x1="1309.09" y1="708.04" x2="443.249" y2="1111.98" gradientUnits="userSpaceOnUse">
<stop stop-color="#0A0A0A"/>
<stop offset="1" stop-color="white" stop-opacity="0"/>
</linearGradient>
<linearGradient id="paint18_linear_505_160" x1="1318.1" y1="728.54" x2="436.643" y2="1093.22" gradientUnits="userSpaceOnUse">
<stop stop-color="#0A0A0A"/>
<stop offset="1" stop-color="white" stop-opacity="0"/>
</linearGradient>
<linearGradient id="paint19_linear_505_160" x1="1326.4" y1="749.922" x2="430.793" y2="1074.25" gradientUnits="userSpaceOnUse">
<stop stop-color="#0A0A0A"/>
<stop offset="1" stop-color="white" stop-opacity="0"/>
</linearGradient>
<linearGradient id="paint20_linear_505_160" x1="1336.24" y1="780.028" x2="423.908" y2="1047.84" gradientUnits="userSpaceOnUse">
<stop stop-color="#0A0A0A"/>
<stop offset="1" stop-color="white" stop-opacity="0"/>
</linearGradient>
<linearGradient id="paint21_linear_505_160" x1="1344.3" y1="810.893" x2="418.522" y2="1021.51" gradientUnits="userSpaceOnUse">
<stop stop-color="#0A0A0A"/>
<stop offset="1" stop-color="white" stop-opacity="0"/>
</linearGradient>
<linearGradient id="paint22_linear_505_160" x1="1348.51" y1="831.419" x2="415.694" y2="1004.27" gradientUnits="userSpaceOnUse">
<stop stop-color="#0A0A0A"/>
<stop offset="1" stop-color="white" stop-opacity="0"/>
</linearGradient>
<linearGradient id="paint23_linear_505_160" x1="1352.46" y1="856.078" x2="413.083" y2="983.613" gradientUnits="userSpaceOnUse">
<stop stop-color="#0A0A0A"/>
<stop offset="1" stop-color="white" stop-opacity="0"/>
</linearGradient>
<linearGradient id="paint24_linear_505_160" x1="1355.62" y1="885.734" x2="411.036" y2="959.044" gradientUnits="userSpaceOnUse">
<stop stop-color="#0A0A0A"/>
<stop offset="1" stop-color="white" stop-opacity="0"/>
</linearGradient>
<linearGradient id="paint25_linear_505_160" x1="1357.04" y1="912.279" x2="410.18" y2="937.161" gradientUnits="userSpaceOnUse">
<stop stop-color="#0A0A0A"/>
<stop offset="1" stop-color="white" stop-opacity="0"/>
</linearGradient>
<linearGradient id="paint26_linear_505_160" x1="1356.92" y1="942.637" x2="410.208" y2="912.33" gradientUnits="userSpaceOnUse">
<stop stop-color="#0A0A0A"/>
<stop offset="1" stop-color="white" stop-opacity="0"/>
</linearGradient>
<linearGradient id="paint27_linear_505_160" x1="1354.99" y1="973.838" x2="411.465" y2="886.601" gradientUnits="userSpaceOnUse">
<stop stop-color="#0A0A0A"/>
<stop offset="1" stop-color="white" stop-opacity="0"/>
</linearGradient>
<linearGradient id="paint28_linear_505_160" x1="1351.1" y1="1005.26" x2="413.967" y2="860.615" gradientUnits="userSpaceOnUse">
<stop stop-color="#0A0A0A"/>
<stop offset="1" stop-color="white" stop-opacity="0"/>
</linearGradient>
<linearGradient id="paint29_linear_505_160" x1="1345.48" y1="1035.81" x2="417.742" y2="834.949" gradientUnits="userSpaceOnUse">
<stop stop-color="#0A0A0A"/>
<stop offset="1" stop-color="white" stop-opacity="0"/>
</linearGradient>
<linearGradient id="paint30_linear_505_160" x1="1337.8" y1="1066.5" x2="422.844" y2="808.791" gradientUnits="userSpaceOnUse">
<stop stop-color="#0A0A0A"/>
<stop offset="1" stop-color="white" stop-opacity="0"/>
</linearGradient>
<linearGradient id="paint31_linear_505_160" x1="1327.46" y1="1099.09" x2="430.025" y2="780.404" gradientUnits="userSpaceOnUse">
<stop stop-color="#0A0A0A"/>
<stop offset="1" stop-color="white" stop-opacity="0"/>
</linearGradient>
<linearGradient id="paint32_linear_505_160" x1="1317.88" y1="1123.96" x2="436.856" y2="758.109" gradientUnits="userSpaceOnUse">
<stop stop-color="#0A0A0A"/>
<stop offset="1" stop-color="white" stop-opacity="0"/>
</linearGradient>
<linearGradient id="paint33_linear_505_160" x1="1305.52" y1="1151.4" x2="445.834" y2="733.193" gradientUnits="userSpaceOnUse">
<stop stop-color="#0A0A0A"/>
<stop offset="1" stop-color="white" stop-opacity="0"/>
</linearGradient>
<linearGradient id="paint34_linear_505_160" x1="1291.89" y1="1177.42" x2="456.153" y2="708.679" gradientUnits="userSpaceOnUse">
<stop stop-color="#0A0A0A"/>
<stop offset="1" stop-color="white" stop-opacity="0"/>
</linearGradient>
<linearGradient id="paint35_linear_505_160" x1="1275.1" y1="1205.21" x2="469.315" y2="681.824" gradientUnits="userSpaceOnUse">
<stop stop-color="#0A0A0A"/>
<stop offset="1" stop-color="white" stop-opacity="0"/>
</linearGradient>
<linearGradient id="paint36_linear_505_160" x1="1257.51" y1="1230.59" x2="483.67" y2="656.545" gradientUnits="userSpaceOnUse">
<stop stop-color="#0A0A0A"/>
<stop offset="1" stop-color="white" stop-opacity="0"/>
</linearGradient>
<linearGradient id="paint37_linear_505_160" x1="1236.71" y1="1256.68" x2="501.31" y2="629.485" gradientUnits="userSpaceOnUse">
<stop stop-color="#0A0A0A"/>
<stop offset="1" stop-color="white" stop-opacity="0"/>
</linearGradient>
<linearGradient id="paint38_linear_505_160" x1="1211.05" y1="1284.58" x2="524.17" y2="599.593" gradientUnits="userSpaceOnUse">
<stop stop-color="#0A0A0A"/>
<stop offset="1" stop-color="white" stop-opacity="0"/>
</linearGradient>
<linearGradient id="paint39_linear_505_160" x1="1186.25" y1="1307.73" x2="547.202" y2="573.684" gradientUnits="userSpaceOnUse">
<stop stop-color="#0A0A0A"/>
<stop offset="1" stop-color="white" stop-opacity="0"/>
</linearGradient>
<linearGradient id="paint40_linear_505_160" x1="1336.85" y1="1330.47" x2="758.985" y2="542.793" gradientUnits="userSpaceOnUse">
<stop stop-color="#0A0A0A"/>
<stop offset="1" stop-color="white" stop-opacity="0"/>
</linearGradient>
<linearGradient id="paint41_linear_505_160" x1="1297.89" y1="1356.21" x2="798.788" y2="511.656" gradientUnits="userSpaceOnUse">
<stop stop-color="#0A0A0A"/>
<stop offset="1" stop-color="white" stop-opacity="0"/>
</linearGradient>
<linearGradient id="paint42_linear_505_160" x1="1256.48" y1="1377.94" x2="843.097" y2="484.205" gradientUnits="userSpaceOnUse">
<stop stop-color="#0A0A0A"/>
<stop offset="1" stop-color="white" stop-opacity="0"/>
</linearGradient>
<linearGradient id="paint43_linear_505_160" x1="1222.43" y1="1392.03" x2="880.915" y2="465.742" gradientUnits="userSpaceOnUse">
<stop stop-color="#0A0A0A"/>
<stop offset="1" stop-color="white" stop-opacity="0"/>
</linearGradient>
<linearGradient id="paint44_linear_505_160" x1="1190.97" y1="1402.34" x2="916.739" y2="451.974" gradientUnits="userSpaceOnUse">
<stop stop-color="#0A0A0A"/>
<stop offset="1" stop-color="white" stop-opacity="0"/>
</linearGradient>
<linearGradient id="paint45_linear_505_160" x1="1154.31" y1="1411.29" x2="959.384" y2="439.812" gradientUnits="userSpaceOnUse">
<stop stop-color="#0A0A0A"/>
<stop offset="1" stop-color="white" stop-opacity="0"/>
</linearGradient>
<linearGradient id="paint46_linear_505_160" x1="1114.75" y1="1417.45" x2="1006.14" y2="431.385" gradientUnits="userSpaceOnUse">
<stop stop-color="#0A0A0A"/>
<stop offset="1" stop-color="white" stop-opacity="0"/>
</linearGradient>
<linearGradient id="paint47_linear_505_160" x1="1083.12" y1="1419.82" x2="1043.88" y2="428.104" gradientUnits="userSpaceOnUse">
<stop stop-color="#0A0A0A"/>
<stop offset="1" stop-color="white" stop-opacity="0"/>
</linearGradient>
<linearGradient id="paint48_linear_505_160" x1="1036.43" y1="1419.26" x2="1099.73" y2="428.899" gradientUnits="userSpaceOnUse">
<stop stop-color="#0A0A0A"/>
<stop offset="1" stop-color="white" stop-opacity="0"/>
</linearGradient>
<linearGradient id="paint49_linear_505_160" x1="996.74" y1="1414.91" x2="1146.9" y2="434.806" gradientUnits="userSpaceOnUse">
<stop stop-color="#0A0A0A"/>
<stop offset="1" stop-color="white" stop-opacity="0"/>
</linearGradient>
<linearGradient id="paint50_linear_505_160" x1="961.241" y1="1408.03" x2="1188.66" y2="444.284" gradientUnits="userSpaceOnUse">
<stop stop-color="#0A0A0A"/>
<stop offset="1" stop-color="white" stop-opacity="0"/>
</linearGradient>
<linearGradient id="paint51_linear_505_160" x1="900.08" y1="531.477" x2="900.08" y2="1524.04" gradientUnits="userSpaceOnUse">
<stop stop-color="#0A0A0A"/>
<stop offset="1" stop-color="white" stop-opacity="0"/>
</linearGradient>
<linearGradient id="paint52_linear_505_160" x1="935.252" y1="532.89" x2="858.019" y2="1522.17" gradientUnits="userSpaceOnUse">
<stop stop-color="#0A0A0A"/>
<stop offset="1" stop-color="white" stop-opacity="0"/>
</linearGradient>
<linearGradient id="paint53_linear_505_160" x1="967.274" y1="536.479" x2="819.956" y2="1517.05" gradientUnits="userSpaceOnUse">
<stop stop-color="#0A0A0A"/>
<stop offset="1" stop-color="white" stop-opacity="0"/>
</linearGradient>
<linearGradient id="paint54_linear_505_160" x1="997.366" y1="542.064" x2="784.506" y2="1509.43" gradientUnits="userSpaceOnUse">
<stop stop-color="#0A0A0A"/>
<stop offset="1" stop-color="white" stop-opacity="0"/>
</linearGradient>
<linearGradient id="paint55_linear_505_160" x1="1025.28" y1="549.143" x2="752.146" y2="1499.86" gradientUnits="userSpaceOnUse">
<stop stop-color="#0A0A0A"/>
<stop offset="1" stop-color="white" stop-opacity="0"/>
</linearGradient>
<linearGradient id="paint56_linear_505_160" x1="1056.9" y1="559.504" x2="716.066" y2="1486.06" gradientUnits="userSpaceOnUse">
<stop stop-color="#0A0A0A"/>
<stop offset="1" stop-color="white" stop-opacity="0"/>
</linearGradient>
<linearGradient id="paint57_linear_505_160" x1="1084.61" y1="570.732" x2="685.236" y2="1471.4" gradientUnits="userSpaceOnUse">
<stop stop-color="#0A0A0A"/>
<stop offset="1" stop-color="white" stop-opacity="0"/>
</linearGradient>
<linearGradient id="paint58_linear_505_160" x1="1119.06" y1="587.707" x2="647.978" y2="1449.68" gradientUnits="userSpaceOnUse">
<stop stop-color="#0A0A0A"/>
<stop offset="1" stop-color="white" stop-opacity="0"/>
</linearGradient>
<linearGradient id="paint59_linear_505_160" x1="1152.52" y1="607.911" x2="613.07" y2="1424.87" gradientUnits="userSpaceOnUse">
<stop stop-color="#0A0A0A"/>
<stop offset="1" stop-color="white" stop-opacity="0"/>
</linearGradient>
<linearGradient id="paint60_linear_505_160" x1="1180.13" y1="627.576" x2="585.4" y2="1401.37" gradientUnits="userSpaceOnUse">
<stop stop-color="#0A0A0A"/>
<stop offset="1" stop-color="white" stop-opacity="0"/>
</linearGradient>
<linearGradient id="paint61_linear_505_160" x1="1207.2" y1="650.015" x2="559.334" y2="1375.52" gradientUnits="userSpaceOnUse">
<stop stop-color="#0A0A0A"/>
<stop offset="1" stop-color="white" stop-opacity="0"/>
</linearGradient>
<linearGradient id="paint62_linear_505_160" x1="1231.34" y1="673.123" x2="537.109" y2="1349.92" gradientUnits="userSpaceOnUse">
<stop stop-color="#0A0A0A"/>
<stop offset="1" stop-color="white" stop-opacity="0"/>
</linearGradient>
<linearGradient id="paint63_linear_505_160" x1="1253.1" y1="696.946" x2="517.805" y2="1324.27" gradientUnits="userSpaceOnUse">
<stop stop-color="#0A0A0A"/>
<stop offset="1" stop-color="white" stop-opacity="0"/>
</linearGradient>
<linearGradient id="paint64_linear_505_160" x1="1271.74" y1="720.205" x2="501.976" y2="1300.26" gradientUnits="userSpaceOnUse">
<stop stop-color="#0A0A0A"/>
<stop offset="1" stop-color="white" stop-opacity="0"/>
</linearGradient>
<linearGradient id="paint65_linear_505_160" x1="1171.65" y1="1434.35" x2="593.789" y2="646.679" gradientUnits="userSpaceOnUse">
<stop stop-color="#0A0A0A"/>
<stop offset="1" stop-color="white" stop-opacity="0"/>
</linearGradient>
<linearGradient id="paint66_linear_505_160" x1="1132.7" y1="1460.09" x2="633.593" y2="615.54" gradientUnits="userSpaceOnUse">
<stop stop-color="#0A0A0A"/>
<stop offset="1" stop-color="white" stop-opacity="0"/>
</linearGradient>
<linearGradient id="paint67_linear_505_160" x1="1091.29" y1="1481.83" x2="677.903" y2="588.09" gradientUnits="userSpaceOnUse">
<stop stop-color="#0A0A0A"/>
<stop offset="1" stop-color="white" stop-opacity="0"/>
</linearGradient>
<linearGradient id="paint68_linear_505_160" x1="1057.24" y1="1495.91" x2="715.72" y2="569.628" gradientUnits="userSpaceOnUse">
<stop stop-color="#0A0A0A"/>
<stop offset="1" stop-color="white" stop-opacity="0"/>
</linearGradient>
<linearGradient id="paint69_linear_505_160" x1="1025.78" y1="1506.23" x2="751.546" y2="555.859" gradientUnits="userSpaceOnUse">
<stop stop-color="#0A0A0A"/>
<stop offset="1" stop-color="white" stop-opacity="0"/>
</linearGradient>
<linearGradient id="paint70_linear_505_160" x1="989.119" y1="1515.18" x2="794.19" y2="543.698" gradientUnits="userSpaceOnUse">
<stop stop-color="#0A0A0A"/>
<stop offset="1" stop-color="white" stop-opacity="0"/>
</linearGradient>
<linearGradient id="paint71_linear_505_160" x1="949.559" y1="1521.34" x2="840.95" y2="535.271" gradientUnits="userSpaceOnUse">
<stop stop-color="#0A0A0A"/>
<stop offset="1" stop-color="white" stop-opacity="0"/>
</linearGradient>
<linearGradient id="paint72_linear_505_160" x1="917.929" y1="1523.71" x2="878.69" y2="531.991" gradientUnits="userSpaceOnUse">
<stop stop-color="#0A0A0A"/>
<stop offset="1" stop-color="white" stop-opacity="0"/>
</linearGradient>
<linearGradient id="paint73_linear_505_160" x1="871.237" y1="1523.14" x2="934.539" y2="532.784" gradientUnits="userSpaceOnUse">
<stop stop-color="#0A0A0A"/>
<stop offset="1" stop-color="white" stop-opacity="0"/>
</linearGradient>
<linearGradient id="paint74_linear_505_160" x1="831.546" y1="1518.8" x2="981.709" y2="538.691" gradientUnits="userSpaceOnUse">
<stop stop-color="#0A0A0A"/>
<stop offset="1" stop-color="white" stop-opacity="0"/>
</linearGradient>
<linearGradient id="paint75_linear_505_160" x1="796.047" y1="1511.92" x2="1023.47" y2="548.169" gradientUnits="userSpaceOnUse">
<stop stop-color="#0A0A0A"/>
<stop offset="1" stop-color="white" stop-opacity="0"/>
</linearGradient>
<linearGradient id="paint76_linear_505_160" x1="734.641" y1="1397.1" x2="1058.67" y2="463.982" gradientUnits="userSpaceOnUse">
<stop stop-color="#0A0A0A"/>
<stop offset="1" stop-color="white" stop-opacity="0"/>
</linearGradient>
<linearGradient id="paint77_linear_505_160" x1="688.174" y1="1378.02" x2="1110.39" y2="488.804" gradientUnits="userSpaceOnUse">
<stop stop-color="#0A0A0A"/>
<stop offset="1" stop-color="white" stop-opacity="0"/>
</linearGradient>
<linearGradient id="paint78_linear_505_160" x1="636.664" y1="1349.39" x2="1164.98" y2="524.506" gradientUnits="userSpaceOnUse">
<stop stop-color="#0A0A0A"/>
<stop offset="1" stop-color="white" stop-opacity="0"/>
</linearGradient>
<linearGradient id="paint79_linear_505_160" x1="600.232" y1="1323.6" x2="1201.49" y2="555.347" gradientUnits="userSpaceOnUse">
<stop stop-color="#0A0A0A"/>
<stop offset="1" stop-color="white" stop-opacity="0"/>
</linearGradient>
</defs>
</svg>
