<svg width="400" height="400" viewBox="0 0 400 400" fill="none" xmlns="http://www.w3.org/2000/svg">
<rect width="400" height="400" rx="200" fill="black"/>
<path d="M131.209 212.462V277L240.22 211.889L274.751 191.265V123L167.728 189.702L131.209 212.462Z" fill="white"/>
<path d="M348 123H274.751V191.265H348V123Z" fill="white"/>
<path d="M348 191.265H274.751L240.22 211.889L320.823 210.834L348 191.265Z" fill="white"/>
<path d="M53 212.462H131.209L167.728 189.702H92.1574L53 212.462Z" fill="white"/>
<path d="M53 212.462V277H131.209V212.462H53Z" fill="white"/>
<path d="M53 212.462V277H131.209M53 212.462H131.209M53 212.462L92.1574 189.702H167.728M131.209 277V212.462M131.209 277L274.751 191.265M131.209 277L240.22 211.889M131.209 212.462L274.751 123M131.209 212.462L167.728 189.702M167.728 189.702L274.751 123M274.751 123H348V191.265M274.751 123V191.265M348 191.265H274.751M348 191.265L320.823 210.834L240.22 211.889M274.751 191.265L240.22 211.889" stroke="black" stroke-width="4.5"/>
</svg>
